<svg width="32" height="32" viewBox="0 0 32 32" fill="none" xmlns="http://www.w3.org/2000/svg">
<g clip-path="url(#clip0_152_401)">
<path d="M31.4767 15.4838H29.842L26.7396 12.3876C26.6423 12.2936 26.5119 12.2416 26.3766 12.2428C26.2413 12.244 26.1119 12.2982 26.0162 12.3939C25.9205 12.4896 25.8663 12.619 25.8651 12.7543C25.8639 12.8896 25.9159 13.02 26.0099 13.1173L28.3826 15.4838H25.367L21.3027 11.4216L25.6931 7.03125C25.7871 6.93392 25.8391 6.80357 25.8379 6.66827C25.8368 6.53297 25.7825 6.40354 25.6868 6.30787C25.5911 6.21219 25.4617 6.15792 25.3264 6.15675C25.1911 6.15557 25.0608 6.20758 24.9634 6.30158L20.5731 10.692L16.5119 6.62874V3.61307L18.8794 5.98371C18.9768 6.07771 19.1071 6.12972 19.2424 6.12854C19.3777 6.12737 19.5071 6.0731 19.6028 5.97742C19.6985 5.88175 19.7528 5.75232 19.7539 5.61702C19.7551 5.48172 19.7031 5.35137 19.6091 5.25404L16.5119 2.15271V0.518959C16.5119 0.382099 16.4575 0.250845 16.3608 0.154071C16.264 0.0572969 16.1327 0.00292969 15.9959 0.00292969C15.859 0.00292969 15.7278 0.0572969 15.631 0.154071C15.5342 0.250845 15.4798 0.382099 15.4798 0.518959V2.15374L12.3837 5.25507C12.2869 5.35197 12.2326 5.48334 12.2327 5.62027C12.2327 5.68808 12.2462 5.75521 12.2721 5.81783C12.2981 5.88045 12.3362 5.93735 12.3842 5.98526C12.4322 6.03317 12.4891 6.07116 12.5518 6.09706C12.6144 6.12296 12.6816 6.13627 12.7494 6.13622C12.8863 6.13613 13.0176 6.08164 13.1144 5.98474L15.4809 3.61513V6.62978L11.4187 10.693L7.02729 6.30261C6.93025 6.20638 6.79912 6.15238 6.66245 6.15238C6.52579 6.15238 6.39466 6.20638 6.29762 6.30261C6.20138 6.39965 6.14738 6.53078 6.14738 6.66745C6.14738 6.80411 6.20138 6.93524 6.29762 7.03228L10.689 11.4227L6.62581 15.4838H3.61014L5.97975 13.1152C6.07375 13.0179 6.12576 12.8876 6.12458 12.7523C6.12341 12.617 6.06914 12.4875 5.97346 12.3919C5.87778 12.2962 5.74836 12.2419 5.61306 12.2407C5.47776 12.2396 5.3474 12.2916 5.25008 12.3856L2.14978 15.4838H0.516029C0.37917 15.4838 0.247916 15.5382 0.151141 15.6349C0.0543672 15.7317 0 15.863 0 15.9998C0 16.1367 0.0543672 16.2679 0.151141 16.3647C0.247916 16.4615 0.37917 16.5159 0.516029 16.5159H2.15081L5.25318 19.612C5.35157 19.7005 5.48015 19.7479 5.61243 19.7445C5.74472 19.741 5.87064 19.687 5.96428 19.5934C6.05792 19.4999 6.11214 19.3741 6.11579 19.2418C6.11943 19.1095 6.07222 18.9809 5.98387 18.8824L3.6122 16.5159H6.62685L10.6911 20.578L6.29968 24.9684C6.20345 25.0655 6.14945 25.1966 6.14945 25.3333C6.14945 25.4699 6.20345 25.6011 6.29968 25.6981C6.39703 25.7941 6.52828 25.848 6.66503 25.848C6.80179 25.848 6.93304 25.7941 7.03038 25.6981L11.4208 21.3077L15.4819 25.372V28.3876L13.1133 26.0191C13.016 25.9251 12.8857 25.873 12.7504 25.8742C12.6151 25.8754 12.4856 25.9297 12.39 26.0253C12.2943 26.121 12.24 26.2504 12.2388 26.3857C12.2377 26.521 12.2897 26.6514 12.3837 26.7487L15.4819 29.847V31.4817C15.4819 31.6186 15.5363 31.7499 15.633 31.8466C15.7298 31.9434 15.8611 31.9978 15.9979 31.9978C16.1348 31.9978 16.2661 31.9434 16.3628 31.8466C16.4596 31.7499 16.514 31.6186 16.514 31.4817V29.847L19.6101 26.7467C19.7041 26.6493 19.7562 26.519 19.755 26.3837C19.7538 26.2484 19.6995 26.119 19.6039 26.0233C19.5082 25.9276 19.3788 25.8733 19.2435 25.8722C19.1082 25.871 18.9778 25.923 18.8805 26.017L16.5129 28.3845V25.3689L20.5751 21.3067L24.9676 25.6971C25.0653 25.7924 25.1964 25.8457 25.3329 25.8457C25.4694 25.8457 25.6005 25.7924 25.6983 25.6971C25.795 25.6003 25.8493 25.4691 25.8493 25.3322C25.8493 25.1954 25.795 25.0642 25.6983 24.9674L21.3079 20.577L25.3721 16.5128H28.3878L26.0192 18.8803C25.923 18.9773 25.869 19.1085 25.869 19.2451C25.869 19.3818 25.923 19.5129 26.0192 19.61C26.1163 19.7065 26.2477 19.7607 26.3846 19.7607C26.5215 19.7607 26.6528 19.7065 26.7499 19.61L29.8502 16.5128H31.485C31.7688 16.5128 32.001 16.2816 32.001 15.9967C32.001 15.7119 31.7616 15.4838 31.4767 15.4838ZM23.9076 15.4838H17.2416L20.5741 12.1513L23.9076 15.4838ZM19.8454 11.4216L16.5129 14.7541V8.08911L19.8454 11.4216ZM15.4809 8.08807V14.7531L12.1484 11.4206L15.4809 8.08807ZM11.4187 12.1513L14.7512 15.4838H8.08618L11.4187 12.1513ZM8.08514 16.5159H14.7502L11.4177 19.8484L8.08514 16.5159ZM12.1484 20.577L15.4809 17.2455V23.9095L12.1484 20.577ZM16.5129 23.9095V17.2455L19.8454 20.578L16.5129 23.9095ZM20.5751 19.8473L17.2426 16.5148H23.9087L20.5751 19.8473Z" fill="#879097"/>
</g>
<defs>
<clipPath id="clip0_152_401">
<rect width="32" height="32" fill="white"/>
</clipPath>
</defs>
</svg>
