<svg width="32" height="32" viewBox="0 0 32 32" fill="none" xmlns="http://www.w3.org/2000/svg">
<path d="M14.2468 13.2152C14.1168 13.0929 13.904 13.0929 13.7739 13.2154L13.0452 13.9022C12.9827 13.9614 12.9476 14.0415 12.9476 14.125C12.9476 14.2085 12.9827 14.2886 13.0452 14.3478L17.7531 18.784C17.8829 18.9065 18.0959 18.9065 18.2257 18.784L18.9548 18.0973C19.0173 18.0381 19.0524 17.958 19.0524 17.8745C19.0524 17.791 19.0173 17.7109 18.9548 17.6517L14.2468 13.2152ZM17.0246 14.3477L17.7531 15.0345C17.816 15.0934 17.901 15.1265 17.9896 15.1265C18.0782 15.1265 18.1632 15.0934 18.226 15.0345L23.7219 9.85555C23.8517 9.73305 24.0646 9.73305 24.1944 9.85555L26.4994 12.0277C26.6295 12.15 26.6295 12.3507 26.4994 12.473L24.9828 13.9022C24.9202 13.9614 24.8851 14.0414 24.885 14.1249C24.885 14.2084 24.92 14.2885 24.9825 14.3477L25.7113 15.0345C25.7742 15.0934 25.8592 15.1265 25.9478 15.1265C26.0364 15.1265 26.1214 15.0934 26.1842 15.0345L28.9024 12.4733C28.9649 12.4141 29 12.334 29 12.2505C29 12.167 28.9649 12.0869 28.9024 12.0277L24.1947 7.59117C24.1319 7.53228 24.0469 7.49922 23.9583 7.49922C23.8696 7.49922 23.7846 7.53228 23.7218 7.59117L17.0247 13.9022C16.9622 13.9614 16.9272 14.0415 16.9272 14.125C16.9272 14.2085 16.9622 14.2885 17.0246 14.3477ZM17.7529 11.2848C17.8158 11.3436 17.9007 11.3767 17.9893 11.3767C18.0779 11.3767 18.1629 11.3436 18.2257 11.2848L18.9545 10.598C19.017 10.5388 19.0521 10.4587 19.0521 10.3752C19.0521 10.2917 19.017 10.2116 18.9545 10.1524L13.4586 4.97348C13.3961 4.91429 13.361 4.83419 13.361 4.7507C13.361 4.66721 13.3961 4.58712 13.4586 4.52792L15.7633 2.35605C15.8934 2.23373 16.1061 2.23373 16.2362 2.35605L18.5412 4.52817C18.6037 4.58737 18.6388 4.66746 18.6388 4.75095C18.6388 4.83444 18.6037 4.91454 18.5412 4.97373L17.0246 6.40267C16.9621 6.46187 16.927 6.54198 16.927 6.62548C16.927 6.70899 16.9621 6.7891 17.0246 6.8483L17.7531 7.53498C17.8159 7.59387 17.9009 7.62693 17.9895 7.62693C18.0781 7.62693 18.1631 7.59387 18.226 7.53498L20.9442 4.97373C21.0067 4.91454 21.0418 4.83444 21.0418 4.75095C21.0418 4.66746 21.0067 4.58737 20.9442 4.52817L16.2366 0.0917344C16.1064 -0.0305781 15.8937 -0.0305781 15.7637 0.0917344L11.0557 4.52823C10.9932 4.58743 10.9582 4.66753 10.9582 4.75102C10.9582 4.8345 10.9932 4.9146 11.0557 4.9738L17.7529 11.2848ZM14.9753 10.1524L14.2468 9.46592C14.1839 9.40705 14.099 9.37401 14.0104 9.37401C13.9218 9.37401 13.8368 9.40705 13.7739 9.46592L9.06624 13.9022C8.93617 14.0247 8.93617 14.2252 9.06624 14.348L9.79474 15.0345C9.85757 15.0934 9.94258 15.1265 10.0312 15.1265C10.1198 15.1265 10.2048 15.0934 10.2676 15.0345L14.9753 10.598C15.0378 10.5388 15.0729 10.4587 15.0729 10.3752C15.0729 10.2917 15.0378 10.2116 14.9753 10.1524Z" fill="#879097"/>
<path d="M9.79482 18.7842C9.92482 18.9066 10.1375 18.9066 10.2676 18.7842L10.9961 18.0975C11.0585 18.0383 11.0936 17.9582 11.0936 17.8747C11.0936 17.7912 11.0585 17.7112 10.9961 17.652L5.50051 12.4732C5.43804 12.414 5.40297 12.3339 5.40297 12.2504C5.40297 12.167 5.43804 12.0869 5.50051 12.0277L7.80529 9.85553C7.93535 9.73322 8.14805 9.73322 8.27811 9.85553L9.79476 11.285C9.85758 11.3439 9.94259 11.3769 10.0312 11.3769C10.1198 11.3769 10.2048 11.3439 10.2676 11.285L10.9962 10.5982C11.1262 10.4754 11.1262 10.275 10.9962 10.1524L8.27785 7.59116C8.14805 7.4686 7.93508 7.4686 7.80529 7.59116L3.09758 12.0274C2.96752 12.1497 2.96752 12.3504 3.09731 12.4727L9.79482 18.7842Z" fill="#879097"/>
<path d="M14.9754 17.6517L14.2468 16.9652C14.184 16.9063 14.099 16.8733 14.0104 16.8733C13.9218 16.8733 13.8368 16.9063 13.774 16.9652L8.27814 22.1442C8.21532 22.2031 8.13033 22.2362 8.04173 22.2362C7.95313 22.2362 7.86814 22.2031 7.80532 22.1442L5.50054 19.9721C5.43805 19.9129 5.40297 19.8328 5.40297 19.7493C5.40297 19.6658 5.43805 19.5857 5.50054 19.5265L7.01718 18.0976C7.07964 18.0384 7.11469 17.9583 7.11469 17.8748C7.11469 17.7913 7.07964 17.7112 7.01718 17.6521L6.28841 16.9652C6.22559 16.9064 6.14059 16.8733 6.052 16.8733C5.9634 16.8733 5.8784 16.9064 5.81558 16.9652L3.09761 19.5265C2.96755 19.6491 2.96755 19.8496 3.09761 19.9724L7.80532 24.4086C7.86814 24.4675 7.95313 24.5005 8.04173 24.5005C8.13033 24.5005 8.21532 24.4675 8.27814 24.4086L14.9754 18.0974C15.1054 17.9751 15.1054 17.7744 14.9754 17.6517ZM14.2468 20.7149C14.184 20.6561 14.099 20.623 14.0104 20.623C13.9218 20.623 13.8368 20.6561 13.774 20.7149L13.0452 21.4017C12.9827 21.4609 12.9477 21.541 12.9477 21.6245C12.9477 21.708 12.9827 21.7881 13.0452 21.8473L18.5411 27.0262C18.6711 27.1486 18.6711 27.3492 18.5411 27.4716L16.2363 29.6436C16.1063 29.7659 15.8935 29.7659 15.7635 29.6436L13.4587 27.4715C13.3287 27.3492 13.3287 27.1485 13.4587 27.0259L14.9754 25.5967C15.1052 25.4744 15.1052 25.2737 14.9754 25.1511L14.2465 24.4647C14.1167 24.3421 13.9038 24.3421 13.774 24.4647L11.0557 27.0262C10.9257 27.1485 10.9257 27.3492 11.0557 27.4715L15.7635 31.908C15.8935 32.0303 16.1062 32.0303 16.2363 31.908L20.9441 27.4715C21.074 27.3492 21.074 27.1485 20.9441 27.0262L14.2468 20.7149ZM17.0244 21.8473L17.7529 22.5338C17.8157 22.5927 17.9008 22.6258 17.9894 22.6258C18.078 22.6258 18.163 22.5927 18.2258 22.5338L22.9338 18.0973C22.9963 18.0381 23.0314 17.958 23.0314 17.8745C23.0314 17.791 22.9963 17.7109 22.9338 17.6517L22.205 16.9652C22.1422 16.9063 22.0572 16.8732 21.9686 16.8732C21.88 16.8732 21.7949 16.9063 21.7321 16.9652L17.0244 21.4017C16.8944 21.5241 16.8944 21.7245 17.0244 21.8473Z" fill="#879097"/>
<path d="M22.205 13.2155C22.075 13.0931 21.8623 13.0931 21.7322 13.2157L21.0036 13.9022C20.9411 13.9614 20.9061 14.0415 20.9061 14.125C20.9061 14.2085 20.9411 14.2886 21.0036 14.3478L26.4995 19.5265C26.562 19.5857 26.597 19.6658 26.597 19.7493C26.597 19.8327 26.562 19.9128 26.4995 19.972L24.1947 22.1442C24.0647 22.2665 23.852 22.2665 23.7219 22.1442L22.205 20.7147C22.075 20.5924 21.8623 20.5924 21.7322 20.7147L21.0036 21.4015C20.9412 21.4607 20.9061 21.5408 20.9061 21.6243C20.9061 21.7077 20.9412 21.7878 21.0036 21.847L23.7219 24.4085C23.7848 24.4674 23.8697 24.5004 23.9583 24.5004C24.0469 24.5004 24.1319 24.4674 24.1947 24.4085L28.9025 19.9723C28.965 19.9131 29.0001 19.833 29.0001 19.7495C29.0001 19.666 28.965 19.5859 28.9025 19.5267L22.205 13.2155Z" fill="#879097"/>
</svg>
