<svg width="32" height="32" viewBox="0 0 32 32" fill="none" xmlns="http://www.w3.org/2000/svg">
<g clip-path="url(#clip0_70_433)">
<path d="M31.8066 15.6202C26.6315 11.8564 20.1436 5.36854 16.3798 0.193435C16.3363 0.133512 16.2792 0.0847464 16.2131 0.0511221C16.1471 0.0174978 16.0741 -3.05176e-05 16 -3.05176e-05C15.9259 -3.05176e-05 15.8529 0.0174978 15.7869 0.0511221C15.7209 0.0847464 15.6638 0.133512 15.6202 0.193435C11.8565 5.36854 5.36857 11.8564 0.193465 15.6202C0.133543 15.6637 0.0847769 15.7209 0.0511526 15.7869C0.0175284 15.8529 0 15.9259 0 16C0 16.0741 0.0175284 16.1471 0.0511526 16.2131C0.0847769 16.2791 0.133543 16.3362 0.193465 16.3798C5.36864 20.1436 11.8565 26.6314 15.6202 31.8066C15.6638 31.8664 15.7209 31.9152 15.7869 31.9488C15.8529 31.9824 15.926 31.9999 16 31.9999C16.0741 31.9999 16.1471 31.9824 16.2131 31.9488C16.2791 31.9152 16.3362 31.8664 16.3798 31.8066C20.1436 26.6314 26.6314 20.1436 31.8066 16.3798C31.8665 16.3362 31.9153 16.2791 31.9489 16.2131C31.9825 16.1471 32 16.0741 32 16C32 15.9259 31.9825 15.8529 31.9489 15.7869C31.9153 15.7209 31.8665 15.6637 31.8066 15.6202ZM16.4697 25.5382V24.909C17.0515 24.7125 17.4716 24.1619 17.4716 23.5147C17.4716 22.8674 17.0515 22.3169 16.4697 22.1203V21.4591C19.1171 21.2333 21.2333 19.1171 21.4591 16.4697H22.1204C22.3169 17.0514 22.8674 17.4716 23.5147 17.4716C24.162 17.4716 24.7125 17.0514 24.909 16.4697H25.5383C25.3001 21.3625 21.3626 25.3001 16.4697 25.5382ZM25.5383 15.5303H24.909C24.7125 14.9486 24.162 14.5284 23.5147 14.5284C22.8674 14.5284 22.3169 14.9486 22.1204 15.5303H21.4591C21.2333 12.8829 19.1171 10.7667 16.4697 10.5409V9.87967C17.0515 9.68316 17.4716 9.13258 17.4716 8.48532C17.4716 7.83805 17.0515 7.28754 16.4697 7.09097V6.46174C21.3626 6.69989 25.3001 10.6375 25.5383 15.5303ZM24.047 16C24.047 16.2935 23.8082 16.5323 23.5147 16.5323C23.2212 16.5323 22.9824 16.2935 22.9824 16C22.9824 15.7065 23.2212 15.4677 23.5147 15.4677C23.8082 15.4677 24.047 15.7065 24.047 16ZM16 24.047C15.7065 24.047 15.4677 23.8082 15.4677 23.5147C15.4677 23.2212 15.7065 22.9824 16 22.9824C16.2935 22.9824 16.5323 23.2212 16.5323 23.5147C16.5323 23.8082 16.2935 24.047 16 24.047ZM16.1898 20.5353L11.4647 15.8103C11.4789 15.4663 11.5324 15.125 11.624 14.7931L17.2069 20.376C16.8751 20.4677 16.5338 20.5211 16.1898 20.5353ZM14.6658 20.3397C13.2336 19.8985 12.1015 18.7664 11.6603 17.3342L14.6658 20.3397ZM18.1546 19.9953L12.0047 13.8454C12.1398 13.5964 12.2978 13.3605 12.4766 13.1408L18.8592 19.5234C18.6395 19.7023 18.4036 19.8603 18.1546 19.9953ZM19.5234 18.8592L13.1409 12.4766C13.3606 12.2977 13.5964 12.1398 13.8454 12.0047L19.9953 18.1546C19.8603 18.4036 19.7023 18.6395 19.5234 18.8592ZM16 7.95303C16.2935 7.95303 16.5323 8.19181 16.5323 8.48532C16.5323 8.77883 16.2935 9.01761 16 9.01761C15.7065 9.01761 15.4677 8.77883 15.4677 8.48532C15.4677 8.19181 15.7065 7.95303 16 7.95303ZM15.8103 11.4647L20.5353 16.1897C20.5211 16.5337 20.4677 16.875 20.376 17.2069L14.7931 11.624C15.125 11.5323 15.4663 11.4789 15.8103 11.4647ZM17.3343 11.6603C18.7665 12.1015 19.8985 13.2336 20.3398 14.6658L17.3343 11.6603ZM16 5.51076C15.704 5.51076 15.4111 5.52378 15.1212 5.54789C15.4175 5.20165 15.7105 4.85256 16 4.50066C16.2896 4.85254 16.5826 5.20164 16.8789 5.54789C16.5866 5.52336 16.2934 5.51097 16 5.51076ZM15.5304 6.46174V7.09097C14.9486 7.28748 14.5284 7.83805 14.5284 8.48532C14.5284 9.13258 14.9486 9.68309 15.5304 9.87967V10.5409C12.8829 10.7667 10.7667 12.8829 10.5409 15.5303H9.8797C9.68319 14.9486 9.13261 14.5284 8.48535 14.5284C7.83808 14.5284 7.28751 14.9486 7.091 15.5303H6.46177C6.69992 10.6375 10.6375 6.69989 15.5304 6.46174ZM9.01764 16C9.01764 16.2935 8.77886 16.5323 8.48535 16.5323C8.19184 16.5323 7.95306 16.2935 7.95306 16C7.95306 15.7065 8.19184 15.4677 8.48535 15.4677C8.77886 15.4677 9.01764 15.7065 9.01764 16ZM5.51079 16C5.51079 16.2959 5.52375 16.5888 5.54792 16.8786C5.20169 16.5824 4.85259 16.2895 4.50069 16C4.84561 15.7165 5.19548 15.4226 5.54792 15.1213C5.52336 15.4136 5.51097 15.7067 5.51079 16ZM6.46177 16.4697H7.091C7.28751 17.0514 7.83808 17.4716 8.48535 17.4716C9.13261 17.4716 9.68319 17.0514 9.8797 16.4697H10.5409C10.7667 19.1171 12.8829 21.2333 15.5304 21.4591V22.1203C14.9486 22.3168 14.5284 22.8674 14.5284 23.5147C14.5284 24.1619 14.9486 24.7124 15.5304 24.909V25.5382C10.6375 25.3001 6.69992 21.3625 6.46177 16.4697ZM16 26.4892C16.296 26.4892 16.5889 26.4763 16.8787 26.4521C16.5824 26.7983 16.2895 27.1474 16 27.4993C15.7105 27.1474 15.4176 26.7983 15.1214 26.4521C15.4112 26.4763 15.7041 26.4892 16 26.4892ZM26.4893 16C26.4893 15.704 26.4763 15.4112 26.4521 15.1213C26.7984 15.4176 27.1475 15.7105 27.4994 16C27.1475 16.2896 26.7984 16.5825 26.4521 16.8788C26.4763 16.589 26.4893 16.296 26.4893 16ZM16 1.26046C17.2436 2.92101 18.7434 4.69798 20.374 6.46744C19.7062 6.15972 19.0076 5.92367 18.29 5.76325C18.2728 5.73004 18.2517 5.699 18.2272 5.67082C17.5726 4.92455 16.9484 4.1841 16.3718 3.46983C16.326 3.41022 16.2664 3.36259 16.1981 3.331C16.1364 3.30229 16.0692 3.28738 16.0012 3.28729H15.9998C15.9303 3.28724 15.8617 3.30266 15.7989 3.33244C15.7506 3.35528 15.7065 3.38627 15.6687 3.42406C15.654 3.43859 15.6405 3.45393 15.6282 3.4699C15.0519 4.18392 14.4278 4.92436 13.773 5.67082C13.7478 5.69963 13.7271 5.73081 13.7101 5.76331C12.9925 5.92373 12.2939 6.15978 11.6261 6.4675C13.2566 4.69798 14.7564 2.92101 16 1.26046ZM6.46747 11.626C6.163 12.2867 5.92865 12.9775 5.76829 13.687C4.98583 14.3758 4.21012 15.0309 3.46204 15.6345C3.40749 15.6786 3.36348 15.7342 3.33325 15.7975C3.30302 15.8607 3.28733 15.93 3.28733 16.0001C3.28733 16.0702 3.30302 16.1394 3.33325 16.2026C3.36348 16.2659 3.40749 16.3216 3.46204 16.3656C4.20981 16.969 4.98551 17.624 5.76829 18.3131C5.92866 19.0226 6.163 19.7134 6.46747 20.374C4.69801 18.7435 2.92104 17.2436 1.26049 16C2.92104 14.7564 4.69801 13.2565 6.46747 11.626ZM16 30.7395C14.7564 29.079 13.2566 27.302 11.626 25.5325C12.2867 25.837 12.9775 26.0714 13.687 26.2317C14.3759 27.0144 15.0309 27.7901 15.6345 28.538C15.6785 28.5925 15.7342 28.6366 15.7975 28.6668C15.8607 28.697 15.9299 28.7127 16 28.7127C16.0701 28.7127 16.1393 28.697 16.2026 28.6668C16.2659 28.6366 16.3215 28.5925 16.3656 28.538C16.9694 27.7897 17.6244 27.0141 18.313 26.2317C19.0225 26.0714 19.7133 25.837 20.374 25.5325C18.7434 27.302 17.2436 29.079 16 30.7395ZM25.5326 20.374C25.8403 19.7062 26.0763 19.0076 26.2368 18.29C26.27 18.2728 26.301 18.2517 26.3292 18.2271C27.0781 17.5702 27.8213 16.9438 28.538 16.3655C28.5926 16.3214 28.6366 16.2658 28.6669 16.2025C28.6971 16.1393 28.7128 16.07 28.7128 15.9999C28.7128 15.9298 28.6971 15.8606 28.6669 15.7973C28.6366 15.7341 28.5926 15.6784 28.538 15.6344C27.7901 15.0309 27.0143 14.3757 26.2318 13.6869C26.0714 12.9774 25.8371 12.2866 25.5326 11.6259C27.302 13.2564 29.079 14.7563 30.7396 15.9999C29.079 17.2436 27.302 18.7435 25.5326 20.374Z" fill="#879097"/>
</g>
<defs>
<clipPath id="clip0_70_433">
<rect width="32" height="32" fill="white"/>
</clipPath>
</defs>
</svg>
