<svg width="32" height="32" viewBox="0 0 32 32" fill="none" xmlns="http://www.w3.org/2000/svg">
<path d="M13.2347 26.6795H18.7653L17.2499 23.6486H14.7502L13.2347 26.6795ZM21.254 6.32806L27.254 18.3281H17.4104L15.8284 21.4921H32L21.2539 0L17.0782 8.35146L18.6603 11.5155L21.254 6.32806Z" fill="#879097"/>
<path d="M21.254 10.641L19.7385 13.672L20.9883 16.1716H24.0192L21.254 10.641ZM7.98071 16.1716H11.0117L12.2615 13.672L10.746 10.641L7.98071 16.1716Z" fill="#879097"/>
<path d="M9.93344 18.3281H4.746L10.746 6.32806L15.6678 16.1716H18.8319L10.7461 0L0 21.4921H8.35144L9.93344 18.3281Z" fill="#879097"/>
<path d="M19.4063 23.6486L22 28.836H10L14.9218 18.9925L13.3397 15.8285L5.25403 32H26.7461L22.5704 23.6486H19.4063Z" fill="#879097"/>
</svg>
