<svg width="32" height="32" viewBox="0 0 32 32" fill="none" xmlns="http://www.w3.org/2000/svg">
<g clip-path="url(#clip0_152_407)">
<path d="M29.16 20.7686C29.2703 20.0752 29.3334 19.3702 29.3334 18.6668C29.3334 13.2337 26.0624 8.55748 21.3905 6.48219C19.5815 2.30792 16.5038 0.200877 16.37 0.112316C16.2605 0.0390902 16.1318 0 16.0002 0C15.8685 0 15.7398 0.0390902 15.6304 0.112316C15.4488 0.233564 12.3747 2.34567 10.5911 6.49482C5.77387 8.63748 2.66697 13.3795 2.66697 18.6668C2.66697 19.3739 2.7389 20.0732 2.84903 20.7654C0.0499284 25.0095 0.000366211 27.2395 0.000366211 27.3334C0.000366211 27.6511 0.224302 27.9245 0.536798 27.987C2.02897 28.2859 4.09664 28.5912 6.30368 28.5912C6.56186 28.5912 6.82342 28.5824 7.08486 28.5735C9.53658 30.7814 12.6958 32 16.0002 32C19.3806 32 22.5071 30.7411 24.904 28.5785C25.1604 28.5871 25.417 28.5957 25.6707 28.5957C27.9102 28.5957 30.0144 28.2774 31.4636 27.987C31.7761 27.9245 32.0001 27.651 32.0001 27.3334C32.0001 27.2296 31.9601 25.0163 29.16 20.7686ZM28.0001 18.6668C28.0001 18.8083 27.9867 18.9496 27.9817 19.0912C27.9419 19.0376 27.9079 18.9878 27.8673 18.9337C27.4857 18.4251 27.0577 17.9541 26.5992 17.5091C26.013 12.0778 21.4885 8.00018 16.0002 8.00018C15.4813 8.00018 14.9663 8.04536 14.4563 8.11942C14.7192 7.58343 14.9961 7.10306 15.2627 6.6975C15.5072 6.68263 15.7518 6.66688 16.0002 6.66688C22.6173 6.66694 28.0001 12.0503 28.0001 18.6668ZM22.6476 12.1036C23.7543 13.2245 24.5787 14.6265 25.0042 16.2122C24.2513 15.6864 23.4256 15.2268 22.5312 14.8329C22.6118 14.1332 22.6668 13.4177 22.6668 12.6669C22.6668 12.4784 22.6541 12.2914 22.6476 12.1036ZM18.3699 25.4454C16.1825 23.9871 13.24 21.9942 11.7158 18.3108C12.2482 18.0878 12.7646 17.9127 13.244 17.7802C14.1449 19.6266 15.226 20.8221 15.4696 21.0765C15.7801 21.5654 17.6236 24.1573 22.4891 25.3729C22.0038 25.8433 21.4628 26.2462 20.8876 26.5997C19.9509 26.308 19.0968 25.9294 18.3699 25.4454ZM19.2299 27.4133C18.2167 27.7842 17.1328 28 16.0001 28C14.893 28 13.8009 27.79 12.7709 27.4107C13.3262 27.1688 13.865 26.8915 14.37 26.5547C14.8822 26.2129 15.4359 25.8358 15.9995 25.4297C16.5651 25.8376 17.1195 26.2141 17.6304 26.5547C18.1204 26.8812 18.6592 27.1636 19.2299 27.4133ZM12.8409 22.6215C11.8228 23.2228 10.4028 23.8245 8.52297 24.2198C7.9421 23.4396 7.4791 22.5971 7.17067 21.6974C7.76685 21.0239 8.40291 20.3978 9.08359 19.8543C9.55115 19.4802 10.034 19.1676 10.5173 18.8963C11.1369 20.3711 11.9405 21.5981 12.8409 22.6215ZM20.0002 12.6669C20.0002 11.8111 19.8846 10.9467 19.6748 10.0839C20.2134 10.3126 20.729 10.5918 21.2148 10.9179C21.2835 11.4925 21.3335 12.0764 21.3335 12.6669C21.3335 16.3963 20.2481 19.4034 18.0495 21.8541C17.4738 21.4007 17.089 20.9925 16.8588 20.7122C17.7785 19.6363 20.0002 16.627 20.0002 12.6669ZM18.5859 13.6143C17.0842 13.3379 16.0498 13.3336 16.0002 13.3336C15.8997 13.3336 14.8742 13.3455 13.4172 13.6108C13.3849 13.2954 13.3336 12.9803 13.3336 12.6669C13.3336 11.553 13.5489 10.5241 13.8558 9.5966C14.5568 9.43179 15.2743 9.3336 16.0002 9.3336C16.7407 9.3336 17.4574 9.42779 18.1484 9.58854C18.4864 10.6177 18.6668 11.6515 18.6668 12.6669C18.6668 12.9943 18.6188 13.3009 18.5859 13.6143ZM15.9979 19.6541C15.6218 19.1908 15.0793 18.4443 14.5803 17.483C15.4309 17.3401 15.9855 17.3335 15.9989 17.3335C16.0059 17.3335 16.5585 17.3386 17.4024 17.4776C16.9026 18.4358 16.3713 19.1929 15.9979 19.6541ZM19.1561 22.6135C20.1445 21.4869 20.922 20.2566 21.4884 18.9108C21.993 19.1963 22.4789 19.5037 22.9168 19.8542C23.6504 20.4408 24.2782 21.063 24.8186 21.6737C24.501 22.608 24.0559 23.4671 23.4934 24.229C21.6274 23.8395 20.2031 23.2355 19.1561 22.6135ZM16.0015 1.5003C16.7191 2.07111 18.3325 3.52941 19.5976 5.84051C18.9102 5.64732 18.2038 5.50076 17.4765 5.4202C16.9263 4.66408 16.4914 4.21553 16.4715 4.19559C16.2215 3.94559 15.7788 3.94559 15.5288 4.19559C15.3842 4.33946 12.0002 7.78018 12.0002 12.6669C12.0002 13.0783 12.0337 13.4924 12.0824 13.9055C11.6545 14.0163 11.2096 14.1464 10.7499 14.3047C10.7007 13.7706 10.6669 13.2266 10.6669 12.6669C10.6669 6.27438 14.7385 2.51335 16.0015 1.5003ZM15.9989 14.6669C16.0102 14.6669 16.9746 14.673 18.3614 14.9286C18.2494 15.3835 18.1189 15.8143 17.9621 16.2228C16.8148 16.0043 16.0373 16.0002 16.0002 16.0002C15.827 16.0002 11.7268 16.032 8.25029 18.8126C7.74073 19.2206 7.25773 19.6754 6.78992 20.1514C6.71293 19.6649 6.66699 19.1701 6.66699 18.6668C6.66699 18.4845 6.6888 18.3052 6.69955 18.1242C10.5416 14.726 15.9451 14.6669 15.9989 14.6669ZM9.46296 14.8142C8.64772 15.1737 7.82254 15.6208 7.02167 16.1772C7.44707 14.654 8.25062 13.2629 9.35765 12.1334C9.35177 12.3129 9.33359 12.4833 9.33359 12.6669C9.33359 13.4029 9.3834 14.1186 9.46296 14.8142ZM9.93439 8.32517C9.76621 8.9151 9.63546 9.54291 9.53409 10.1973C6.90449 12.2091 5.33363 15.3527 5.33363 18.6668C5.33363 20.7627 5.95918 22.7363 7.08811 24.4631C6.61449 24.5258 6.11581 24.5738 5.59144 24.6072C4.55963 22.8011 4.00033 20.7592 4.00033 18.6668C4.00033 14.3621 6.29049 10.4606 9.93439 8.32517ZM1.4196 26.7976C1.57591 26.0871 2.03003 24.6726 3.27471 22.588C3.43577 23.112 3.62133 23.6273 3.84614 24.1281C3.54289 24.6968 3.3884 25.0691 3.38177 25.0867C3.34132 25.1878 3.32623 25.2972 3.33781 25.4055C3.34939 25.5138 3.38729 25.6176 3.44821 25.7078C3.50929 25.798 3.59155 25.8719 3.68779 25.923C3.78402 25.9741 3.89131 26.0008 4.00026 26.0008C8.83828 26.0008 11.932 24.76 13.779 23.6038C14.1462 23.9545 14.5182 24.2783 14.8925 24.5822C14.4753 24.8751 14.0546 25.1629 13.6304 25.4455C10.0536 27.8301 4.6787 27.3829 1.4196 26.7976ZM16.0002 30.6667C13.4735 30.6667 11.0449 29.8687 9.01646 28.4135C9.66115 28.328 10.3006 28.2055 10.9291 28.0415C12.48 28.8817 14.2259 29.3333 16.0002 29.3333C20.33 29.3333 24.1109 26.7666 25.7775 22.8638C26.1246 23.3381 26.4179 23.7849 26.6477 24.1706C24.5749 28.1791 20.531 30.6667 16.0002 30.6667ZM26.1813 27.253C26.5207 26.8481 26.8462 26.4302 27.1393 25.9814C27.4227 25.9903 27.7042 26.0007 28 26.0007C28.2214 26.0007 28.4284 25.8908 28.5521 25.7078C28.613 25.6175 28.6509 25.5137 28.6624 25.4054C28.674 25.2972 28.6589 25.1877 28.6185 25.0866C28.5625 24.9434 27.181 21.558 23.7501 18.8126C23.1996 18.3724 22.5878 17.9903 21.9486 17.6435C22.0951 17.17 22.2178 16.6895 22.316 16.2037C24.1652 17.0736 25.6842 18.246 26.7995 19.7332C29.5781 23.4376 30.362 25.8048 30.5821 26.7976C29.3706 27.0147 27.8231 27.2166 26.1813 27.253Z" fill="#879097"/>
</g>
<defs>
<clipPath id="clip0_152_407">
<rect width="32" height="32" fill="white"/>
</clipPath>
</defs>
</svg>
