<svg width="32" height="32" viewBox="0 0 32 32" fill="none" xmlns="http://www.w3.org/2000/svg">
<g clip-path="url(#clip0_70_437)">
<path d="M28.8249 10.8496C28.1324 9.13069 27.0861 7.544 25.7711 6.22888C24.456 4.91381 22.8692 3.86756 21.1504 3.17506V0H10.8496V3.17512C9.13075 3.86762 7.544 4.91388 6.22887 6.22894C4.91381 7.54406 3.86762 9.13075 3.17512 10.8496H6.10352e-05V21.1504H3.17512C3.86762 22.8693 4.91387 24.456 6.229 25.7711C7.54412 27.0863 9.13087 28.1325 10.8497 28.8249V32H21.1505V28.8248C22.8694 28.1323 24.4561 27.0861 25.7711 25.771C27.0862 24.4559 28.1324 22.8692 28.8249 21.1503H32V10.8496H28.8249ZM12.7507 2.4995V1.90106H19.2493V3.84975H12.7507V2.4995ZM26.249 15.0494H16.9505V5.75087H19.2492V7.53925C18.1679 8.22319 17.4978 9.41456 17.4978 10.7271C17.4978 12.8087 19.1913 14.5021 21.2728 14.5021C21.635 14.5022 21.9953 14.4506 22.3428 14.3488C23.2195 14.0913 23.9723 13.5232 24.4604 12.7507H26.2489V15.0494H26.249ZM10.7271 17.4978C9.65475 17.4978 8.66331 17.9454 7.96337 18.699C7.80538 18.869 7.66344 19.0532 7.53937 19.2493H5.75087V16.9506H15.0494V26.2492H12.7508V24.4606C13.8321 23.7767 14.5021 22.5853 14.5021 21.2729C14.5021 19.1912 12.8086 17.4978 10.7271 17.4978ZM12.7507 5.75087H15.0494V15.0494H5.75087V12.7507H7.53931C8.0713 13.5926 8.91572 14.1889 9.88706 14.4086C10.1627 14.4708 10.4444 14.5021 10.7269 14.502C12.8086 14.502 14.5019 12.8085 14.5019 10.727C14.5019 9.4145 13.8319 8.22312 12.7506 7.53919V5.75087H12.7507ZM10.8496 5.25106V8.751L11.4387 8.99319C12.1448 9.2835 12.601 9.964 12.601 10.7269C12.601 11.7603 11.7604 12.6009 10.7271 12.6009C9.96419 12.6009 9.28362 12.1447 8.99337 11.4386L8.75125 10.8494H5.25112C6.424 8.4155 8.41556 6.424 10.8496 5.25106ZM3.84987 19.2493H1.90112V12.7507H2.49956L3.84981 12.7507L3.84987 19.2493ZM11.4387 23.0066L10.8496 23.2488V26.7488C8.41569 25.576 6.42412 23.5844 5.25112 21.1504H8.75112L8.99331 20.5613C9.28362 19.8552 9.96412 19.399 10.727 19.399C11.7604 19.399 12.6009 20.2396 12.6009 21.2729C12.6009 22.0357 12.1447 22.7163 11.4387 23.0066ZM19.2494 29.5005V30.0989H12.7508V28.1502H19.2494V29.5005ZM19.2494 26.2491H16.9506V16.9505H26.2491V19.2492H24.4607V19.2493C24.3366 19.0532 24.1946 18.8689 24.0367 18.6989C23.3367 17.9454 22.3453 17.4977 21.2729 17.4977C19.1913 17.4977 17.4979 19.1912 17.4979 21.2728C17.4979 22.5853 18.168 23.7767 19.2494 24.4606V26.2491H19.2494ZM21.1505 26.7488V23.2489L20.5614 23.0068C19.8552 22.7164 19.399 22.0359 19.399 21.2729C19.399 20.2396 20.2396 19.3991 21.2729 19.3991C22.0358 19.3991 22.7164 19.8552 23.0066 20.5614L23.2488 21.1504H26.7487C25.576 23.5844 23.5845 25.5759 21.1505 26.7488ZM23.2488 10.8496L23.0067 11.4387C22.7164 12.1448 22.0359 12.601 21.273 12.601C20.2396 12.601 19.3991 11.7604 19.3991 10.7271C19.3991 9.96412 19.8552 9.28356 20.5614 8.99331L21.1504 8.75113V5.25106C23.5844 6.424 25.5759 8.4155 26.7489 10.8496H23.2488ZM30.0989 19.2493H28.1502V12.7507H29.5005L30.0989 12.7507V19.2493Z" fill="#879097"/>
</g>
<defs>
<clipPath id="clip0_70_437">
<rect width="32" height="32" fill="white"/>
</clipPath>
</defs>
</svg>
