<svg width="32" height="32" viewBox="0 0 32 32" fill="none" xmlns="http://www.w3.org/2000/svg">
<g clip-path="url(#clip0_152_348)">
<path d="M18.7686 14.9129C18.7226 14.7979 18.6331 14.7058 18.5194 14.6566C18.4058 14.6075 18.2774 14.6052 18.1621 14.6505C18.0469 14.6957 17.9542 14.7846 17.9043 14.8979C17.8544 15.0112 17.8513 15.1397 17.8958 15.2552C18.0406 15.6242 18.0746 16.0275 17.9936 16.4155C17.9127 16.8035 17.7202 17.1595 17.4399 17.4398C17.0553 17.8243 16.5441 18.0362 16.0002 18.0362C15.4563 18.0362 14.945 17.8243 14.5604 17.4398C13.7666 16.646 13.7666 15.3542 14.5604 14.5603C14.8407 14.2802 15.1965 14.0878 15.5844 14.0067C15.9723 13.9257 16.3754 13.9596 16.7444 14.1041C16.8019 14.1277 16.8636 14.1397 16.9258 14.1392C16.9879 14.1388 17.0494 14.1259 17.1066 14.1015C17.1638 14.077 17.2155 14.0414 17.2588 13.9968C17.3021 13.9522 17.3361 13.8993 17.3588 13.8414C17.3815 13.7835 17.3924 13.7217 17.3909 13.6595C17.3895 13.5973 17.3757 13.5361 17.3503 13.4793C17.3249 13.4225 17.2885 13.3714 17.2432 13.3288C17.1979 13.2862 17.1445 13.2531 17.0862 13.2313C16.5475 13.0202 15.959 12.9708 15.3926 13.0891C14.8262 13.2074 14.3066 13.4883 13.8975 13.8975C12.7382 15.0568 12.7382 16.9433 13.8975 18.1026C14.4591 18.6643 15.2058 18.9736 16.0001 18.9736C16.7944 18.9736 17.5411 18.6643 18.1028 18.1026C18.512 17.6934 18.7931 17.1736 18.9113 16.6071C19.0296 16.0405 18.98 15.4517 18.7686 14.9129Z" fill="#879097"/>
<path d="M31.9468 14.6928C31.6534 11.0086 30.0509 7.50454 27.4344 4.82597C24.8172 2.14676 21.3516 0.463816 17.6761 0.0873136C14.9873 -0.188126 12.372 0.188627 9.90357 1.20701C9.79691 1.25111 9.71026 1.33301 9.66024 1.43702C9.61021 1.54103 9.60032 1.65985 9.63245 1.7707C9.66458 1.88156 9.73649 1.97666 9.83439 2.03779C9.93229 2.09893 10.0493 2.12179 10.163 2.10201C10.7754 1.99489 11.3909 1.94064 11.9923 1.94064C17.8111 1.94064 22.545 6.67454 22.545 12.4932C22.545 13.041 22.5016 13.593 22.4163 14.1338C22.3342 14.6533 21.902 15.0303 21.3884 15.0303H20.8819C20.4295 12.7485 18.4128 11.0226 16.0001 11.0226C13.9977 11.0226 12.2688 12.2118 11.4796 13.9206C11.0868 13.6178 10.3723 12.9262 10.4951 11.9684C10.5034 11.9038 10.4981 11.8382 10.4796 11.7757C10.4611 11.7133 10.4298 11.6554 10.3877 11.6058C10.3456 11.5561 10.2936 11.5157 10.235 11.4873C10.1764 11.4588 10.1125 11.4428 10.0474 11.4404C10.0278 11.4396 8.07325 11.343 7.11799 9.21218C7.09326 9.15533 7.0575 9.10395 7.01278 9.06101C6.96806 9.01807 6.91527 8.98444 6.85746 8.96204C6.79965 8.93965 6.73797 8.92894 6.67599 8.93055C6.61402 8.93216 6.55298 8.94604 6.49641 8.9714C6.43983 8.99675 6.38885 9.03308 6.34641 9.07828C6.30398 9.12347 6.27093 9.17664 6.24918 9.23469C6.22743 9.29275 6.21741 9.35454 6.2197 9.4165C6.222 9.47845 6.23656 9.53933 6.26255 9.59562C6.32558 9.7359 6.39445 9.87348 6.46899 10.008C6.22898 10.0329 5.98417 10.0204 5.73711 9.96918C4.9071 9.79718 4.21478 9.12837 4.01422 8.30505C3.86266 7.68273 3.96322 7.0481 4.29747 6.51798C4.36129 6.41679 4.384 6.29502 4.36093 6.17763C4.33786 6.06024 4.27077 5.95612 4.17341 5.8866C4.07607 5.81705 3.95582 5.78736 3.83729 5.8036C3.71877 5.81985 3.61094 5.8808 3.53591 5.97397C2.10959 7.74492 1.09564 9.75312 0.522201 11.9428C0.501481 12.0217 0.50175 12.1047 0.522982 12.1835C0.544213 12.2624 0.58567 12.3343 0.643246 12.3922C0.700822 12.45 0.772518 12.4919 0.851233 12.5135C0.929948 12.5351 1.01295 12.5358 1.09202 12.5155C1.23758 12.4782 1.35821 12.4608 1.47177 12.4608C2.31827 12.4608 3.0069 13.1495 3.0069 13.996C3.0069 14.8424 2.31821 15.5311 1.47177 15.5311C1.20864 15.5311 0.951516 15.4593 0.707514 15.3178C0.563826 15.2344 0.386637 15.2333 0.242012 15.315C0.0973857 15.3967 0.00663517 15.5489 0.00369766 15.715C-0.0055524 16.2423 0.0111352 16.778 0.0532604 17.3072C0.346637 20.9913 1.94908 24.4954 4.56566 27.174C7.1828 29.8532 10.6484 31.5361 14.324 31.9126C14.8874 31.9706 15.4534 31.9997 16.0198 31.9999C18.1127 31.9999 20.1502 31.5959 22.0965 30.7929C22.2031 30.7488 22.2897 30.6669 22.3396 30.5629C22.3896 30.4589 22.3995 30.3401 22.3674 30.2293C22.3352 30.1185 22.2634 30.0235 22.1655 29.9623C22.0677 29.9012 21.9508 29.8783 21.8371 29.898C21.2246 30.005 20.6092 30.0594 20.0078 30.0594C14.1891 30.0594 9.45519 25.3255 9.45519 19.5067C9.45519 18.959 9.4985 18.407 9.58388 17.8662C9.66594 17.3467 10.0981 16.9696 10.6118 16.9696H11.1182C11.5706 19.2515 13.5873 20.9774 16 20.9774C18.0025 20.9774 19.7314 19.7881 20.5206 18.0794C20.9134 18.3821 21.6278 19.0737 21.5051 20.0316C21.4968 20.0962 21.502 20.1618 21.5205 20.2242C21.539 20.2867 21.5703 20.3446 21.6124 20.3942C21.6546 20.4439 21.7066 20.4843 21.7652 20.5127C21.8237 20.5412 21.8876 20.5572 21.9527 20.5596C21.9723 20.5604 23.9269 20.657 24.8822 22.7878C24.9191 22.8704 24.9792 22.9405 25.0552 22.9897C25.1311 23.0388 25.2196 23.065 25.3101 23.0649C25.3883 23.0649 25.4653 23.0453 25.5339 23.0079C25.6026 22.9705 25.6609 22.9165 25.7034 22.8509C25.7459 22.7852 25.7712 22.7099 25.7772 22.632C25.7832 22.554 25.7695 22.4757 25.7375 22.4044C25.6745 22.2641 25.6056 22.1265 25.5311 21.992C25.7712 21.9671 26.016 21.9796 26.263 22.0308C27.093 22.2028 27.7853 22.8716 27.9859 23.695C28.1374 24.3173 28.0369 24.9519 27.7026 25.482C27.6388 25.5832 27.6161 25.705 27.6392 25.8224C27.6622 25.9398 27.7293 26.0439 27.8267 26.1134C27.906 26.1703 28.0012 26.2008 28.0988 26.2007C28.2362 26.2007 28.3719 26.1406 28.4642 26.026C29.8905 24.255 30.9044 22.2468 31.4779 20.0572C31.4986 19.9782 31.4983 19.8952 31.4771 19.8164C31.4559 19.7376 31.4144 19.6657 31.3568 19.6078C31.2993 19.5499 31.2276 19.5081 31.1488 19.4864C31.0701 19.4648 30.9871 19.4641 30.9081 19.4844C30.7625 19.5217 30.6419 19.5391 30.5283 19.5391C29.6818 19.5391 28.9932 18.8504 28.9932 18.004C28.9932 17.1575 29.6819 16.4688 30.5283 16.4688C30.7914 16.4688 31.0486 16.5406 31.2926 16.6822C31.4363 16.7655 31.6134 16.7666 31.7581 16.6849C31.9027 16.6032 31.9934 16.451 31.9964 16.285C32.0056 15.7576 31.9889 15.2219 31.9468 14.6928ZM11.0225 16.0003C11.0225 16.0112 11.0233 16.0218 11.0233 16.0326H10.6118V16.0324C9.63407 16.0324 8.81237 16.7422 8.65806 17.7202C8.56491 18.3113 8.51806 18.9087 8.51793 19.507C8.51793 24.6587 11.9263 29.0293 16.6064 30.4829C14.707 30.2717 12.8825 29.6319 11.2645 28.6005C11.1596 28.5355 11.0334 28.5144 10.9132 28.5418C10.7929 28.5691 10.6883 28.6428 10.622 28.7469C10.5557 28.8509 10.533 28.9768 10.559 29.0974C10.5849 29.218 10.6574 29.3235 10.7606 29.391C11.8311 30.0735 12.993 30.6007 14.2117 30.9568C10.8314 30.5614 7.65112 28.9913 5.23642 26.5193C2.77271 23.9972 1.26395 20.6994 0.987953 17.2332C0.966181 16.9592 0.951634 16.6847 0.944328 16.41C1.11708 16.4492 1.29327 16.469 1.47196 16.469C2.83534 16.469 3.94453 15.3598 3.94453 13.9964C3.94453 12.6813 2.9124 11.6026 1.61571 11.5279C1.96559 10.3979 2.44907 9.31366 3.0559 8.29824C3.06903 8.37461 3.0849 8.45099 3.10347 8.52718C3.39241 9.71318 4.35141 10.6396 5.54692 10.8874C5.86742 10.9539 6.1863 10.9731 6.50055 10.9469C5.19598 13.0668 4.50997 15.4897 4.50997 18.0042C4.50997 19.164 4.6601 20.3061 4.94666 21.4063C4.94916 21.4232 4.95116 21.4401 4.95379 21.4569C4.96091 21.5033 4.97479 21.5468 4.99391 21.5869C5.69548 24.135 7.13824 26.4473 9.18019 28.2137C9.26522 28.2875 9.37405 28.3281 9.48663 28.328C9.55394 28.3281 9.62047 28.3136 9.68169 28.2857C9.7429 28.2577 9.79735 28.2168 9.84132 28.1659C9.88159 28.1193 9.91229 28.0653 9.93168 28.0069C9.95107 27.9484 9.95876 27.8868 9.95431 27.8254C9.94987 27.764 9.93337 27.7041 9.90577 27.649C9.87817 27.594 9.84 27.545 9.79344 27.5047C7.88257 25.8527 6.51423 23.6629 5.86711 21.2212C5.55948 19.0505 6.17805 16.9155 7.70762 14.8739C7.74452 14.8246 7.77136 14.7686 7.78661 14.709C7.80185 14.6493 7.8052 14.5873 7.79647 14.5263C7.78773 14.4654 7.76708 14.4068 7.73569 14.3538C7.7043 14.3009 7.66279 14.2546 7.61352 14.2177C7.56426 14.1808 7.50821 14.154 7.44858 14.1387C7.38894 14.1235 7.32689 14.1202 7.26596 14.1289C7.20503 14.1376 7.14641 14.1583 7.09346 14.1897C7.04052 14.2211 6.99427 14.2626 6.95736 14.3118C6.33248 15.146 5.84442 16.0108 5.49623 16.8925C5.67286 14.8732 6.33005 12.9434 7.42674 11.2348C7.95206 11.7141 8.50819 11.9928 8.97006 12.1544C8.69601 12.3927 8.43119 12.6414 8.17618 12.9C8.11123 12.9657 8.06719 13.0493 8.04959 13.14C8.032 13.2308 8.04164 13.3247 8.0773 13.41C8.11297 13.4953 8.17306 13.5681 8.25002 13.6193C8.32698 13.6705 8.41737 13.6979 8.50981 13.6978C8.57191 13.6979 8.6334 13.6856 8.6907 13.6617C8.74799 13.6377 8.79994 13.6026 8.8435 13.5583C9.09311 13.3053 9.35287 13.0625 9.62213 12.8305C9.90182 13.9445 10.8484 14.6404 11.1598 14.8431C11.0688 15.2221 11.0227 15.6105 11.0225 16.0003ZM16.0002 20.0401C13.7725 20.0401 11.9601 18.2277 11.9601 16C11.9601 13.7723 13.7725 11.9599 16.0002 11.9599C18.2278 11.9599 20.0402 13.7723 20.0402 16C20.0401 18.2278 18.2279 20.0401 16.0002 20.0401ZM30.5282 15.5314C29.1649 15.5314 28.0557 16.6406 28.0557 18.004C28.0557 19.3191 29.0878 20.3977 30.3845 20.4725C30.0346 21.6025 29.5511 22.6867 28.9443 23.7021C28.9311 23.6253 28.9152 23.5489 28.8967 23.4732C28.6078 22.2872 27.6488 21.3608 26.4533 21.1129C26.1328 21.0465 25.8139 21.0272 25.4996 21.0535C26.8042 18.9336 27.4902 16.5108 27.4902 13.9962C27.4902 12.8363 27.34 11.6943 27.0535 10.5941C27.051 10.5772 27.049 10.5603 27.0464 10.5434C27.0394 10.4982 27.0258 10.4543 27.0061 10.413C26.3045 7.86517 24.8618 5.55291 22.82 3.78671C22.7257 3.7073 22.6039 3.66821 22.4811 3.67792C22.3582 3.68762 22.2441 3.74533 22.1634 3.83856C22.0828 3.93179 22.0421 4.05302 22.0502 4.17602C22.0583 4.29901 22.1145 4.41387 22.2067 4.49571C24.1176 6.14771 25.4859 8.33752 26.133 10.7792C26.4407 12.95 25.8221 15.085 24.2925 17.1265C24.2556 17.1758 24.2288 17.2318 24.2135 17.2915C24.1983 17.3511 24.1949 17.4132 24.2037 17.4741C24.2213 17.5971 24.2871 17.7081 24.3866 17.7827C24.4861 17.8572 24.6111 17.8892 24.7341 17.8715C24.8572 17.8539 24.9682 17.7881 25.0427 17.6886C25.6676 16.8545 26.1557 15.9897 26.5039 15.1079C26.3272 17.1272 25.67 19.057 24.5733 20.7656C24.048 20.2863 23.4919 20.0076 23.03 19.846C23.304 19.6077 23.5689 19.3591 23.8239 19.1005C23.8671 19.0567 23.9013 19.0048 23.9245 18.9478C23.9477 18.8908 23.9594 18.8297 23.959 18.7682C23.9586 18.7066 23.9461 18.6458 23.9221 18.589C23.8982 18.5323 23.8633 18.4809 23.8195 18.4377C23.7757 18.3944 23.7238 18.3602 23.6668 18.3371C23.6098 18.3139 23.5487 18.3022 23.4872 18.3026C23.4256 18.303 23.3648 18.3155 23.3081 18.3395C23.2514 18.3634 23.1999 18.3983 23.1567 18.4421C22.9071 18.6951 22.6473 18.938 22.3781 19.17C22.0985 18.056 21.1518 17.36 20.8404 17.1574C20.9314 16.7783 20.9774 16.3899 20.9776 16C20.9776 15.9892 20.9769 15.9786 20.9768 15.9678H21.3886C22.3663 15.9678 23.188 15.258 23.3423 14.28C23.4355 13.6889 23.4823 13.0915 23.4825 12.4932C23.4825 7.34148 20.0741 2.97089 15.394 1.51732C17.2934 1.72845 19.1179 2.36833 20.7359 3.39965C20.7878 3.43277 20.8458 3.45533 20.9064 3.46606C20.967 3.47678 21.0291 3.47545 21.0892 3.46214C21.1494 3.44883 21.2062 3.4238 21.2567 3.38849C21.3071 3.35317 21.3501 3.30827 21.3831 3.25633C21.4162 3.20443 21.4388 3.14652 21.4495 3.08591C21.4602 3.0253 21.4588 2.96318 21.4455 2.90308C21.4322 2.84299 21.4072 2.78611 21.3719 2.73568C21.3366 2.68526 21.2917 2.64228 21.2398 2.6092C20.1693 1.9267 19.0074 1.39953 17.7887 1.04344C21.1689 1.43882 24.3493 3.00896 26.764 5.48091C29.2277 8.00299 30.7364 11.3008 31.0124 14.767C31.0342 15.0404 31.0488 15.3155 31.0561 15.5902C30.8829 15.551 30.7058 15.5313 30.5282 15.5314Z" fill="#879097"/>
</g>
<defs>
<clipPath id="clip0_152_348">
<rect width="32" height="32" fill="white"/>
</clipPath>
</defs>
</svg>
