<svg width="32" height="32" viewBox="0 0 32 32" fill="none" xmlns="http://www.w3.org/2000/svg">
<path d="M15.9808 30C19.2206 30.0044 22.3617 28.8851 24.8685 26.8328C27.3754 24.7805 29.0928 21.9223 29.7282 18.7454C30.3635 15.5685 29.8773 12.2696 28.3525 9.41106C26.8278 6.55251 24.3588 4.31127 21.3665 3.06939C18.3742 1.82751 15.0438 1.66188 11.943 2.60073C8.84222 3.53957 6.16304 5.52479 4.36217 8.21794C2.5613 10.9111 1.75022 14.1455 2.06719 17.3697C2.38416 20.594 3.80956 23.6085 6.10041 25.8994C7.39602 27.2 8.93586 28.2319 10.6315 28.9356C12.3271 29.6393 14.145 30.001 15.9808 30ZM25.0596 23.803C23.9396 25.1164 22.5477 26.1708 20.9802 26.8933C19.4126 27.6158 17.7069 27.9892 15.9808 27.9876C14.2562 27.988 12.552 27.6141 10.9859 26.8916C9.41988 26.1691 8.02931 25.1153 6.91024 23.803L6.74773 23.6134L9.84891 20.5123L15.989 26.6523L22.129 20.5123L22.3213 20.7046L23.3072 21.6905L25.0542 23.4374L25.2302 23.6134L25.0596 23.803ZM6.91295 8.23485C8.03291 6.9215 9.42479 5.86711 10.9923 5.1446C12.5599 4.42209 14.2656 4.04872 15.9917 4.05029C17.7163 4.04989 19.4205 4.42384 20.9866 5.14631C22.5526 5.86878 23.9432 6.92255 25.0623 8.23485L25.2248 8.42444L22.1209 11.531L15.9808 5.39098L9.84078 11.531L9.64848 11.3387L8.6599 10.3529L6.91566 8.60591L6.73961 8.42986L6.91295 8.23485ZM5.41247 21.6092C4.70438 20.2776 4.25584 18.8235 4.09074 17.3244L4.05824 17.0238H9.72432L10.7319 16.019L9.72432 15.0141H4.04741L4.07991 14.7135C4.24501 13.2144 4.69354 11.7603 5.40163 10.4287L5.57227 10.1037L8.22655 12.758L9.12846 13.6626L10.0195 14.551L11.1029 15.6343L12.1863 14.551L12.5222 14.2151L11.2573 12.9503L15.9781 8.23215L20.6963 12.9503L19.2418 14.4074L17.4326 16.2112L15.9781 17.6657L14.716 16.4063L13.2913 17.8282L15.9808 20.5177L18.8626 17.6386L19.3881 17.1105L20.6665 15.8321L21.9421 14.5564L22.8305 13.668L23.7351 12.7634L26.3894 10.1091L26.56 10.4341C27.2685 11.7654 27.7162 13.2197 27.8791 14.7189L27.9143 15.0195H22.2455L21.2406 16.0244L22.2455 17.0292H27.9143L27.8791 17.3298C27.7162 18.829 27.2685 20.2834 26.56 21.6146L26.3894 21.9396L23.7351 19.2853L22.8305 18.3807L21.9421 17.4896L20.8588 16.4063L19.7754 17.4896L19.4314 17.8228L20.6935 19.0876L15.9754 23.8058L11.26 19.0876L12.7172 17.6305L14.5237 15.8266L15.9808 14.3722L17.2457 15.6371L18.6703 14.2151L15.9808 11.531L13.099 14.4128L12.5574 14.9383L11.3061 16.2112L10.0195 17.4896L9.13929 18.3753L8.23738 19.2799L5.5831 21.9342L5.41247 21.6092Z" fill="#879097"/>
<path d="M24.0589 18.4797L23.8419 18.6966L24.0589 18.4797Z" fill="#3A4D57"/>
</svg>
