<svg width="32" height="32" viewBox="0 0 32 32" fill="none" xmlns="http://www.w3.org/2000/svg">
<g clip-path="url(#clip0_152_416)">
<path d="M31.9775 28.1999L30.1967 21.5554C30.1741 21.471 30.135 21.392 30.0816 21.323C30.0282 21.2539 29.9616 21.1961 29.8857 21.153C29.8098 21.1099 29.726 21.0824 29.6393 21.0719C29.5527 21.0615 29.4648 21.0684 29.3808 21.0922C28.0916 21.4577 26.7442 21.2908 25.5868 20.622C24.4285 19.953 23.6104 18.8698 23.2833 17.5719C23.2619 17.4872 23.224 17.4076 23.1716 17.3378C23.1192 17.2679 23.0534 17.2092 22.9781 17.165C22.9028 17.1207 22.8195 17.0919 22.733 17.0802C22.6464 17.0685 22.5584 17.0741 22.4741 17.0966L19.2805 17.9525C19.151 17.9181 19.0194 17.8922 18.8866 17.8748C18.942 17.7433 18.9883 17.6082 19.0252 17.4703L21.3296 15.166C21.3913 15.1043 21.4402 15.0309 21.4734 14.9501C21.5065 14.8693 21.5232 14.7827 21.5226 14.6954C21.522 14.6081 21.504 14.5217 21.4696 14.4414C21.4353 14.3611 21.3854 14.2885 21.3227 14.2276C20.3621 13.2948 19.833 12.0445 19.833 10.7072C19.833 9.36979 20.3621 8.11956 21.3227 7.18663C21.3854 7.12582 21.4353 7.05316 21.4697 6.97286C21.504 6.89257 21.522 6.80626 21.5226 6.71894C21.5233 6.63163 21.5065 6.54506 21.4734 6.46427C21.4403 6.38348 21.3914 6.31009 21.3296 6.24836L16.4659 1.38387C16.4048 1.32268 16.3322 1.27414 16.2523 1.24102C16.1723 1.2079 16.0867 1.19086 16.0002 1.19086C15.9137 1.19086 15.828 1.2079 15.7481 1.24102C15.6682 1.27414 15.5955 1.32268 15.5344 1.38387L10.6699 6.24836C10.6081 6.31011 10.5593 6.38351 10.5262 6.46431C10.4931 6.54511 10.4763 6.63169 10.477 6.71901C10.4776 6.80633 10.4956 6.89265 10.5299 6.97295C10.5642 7.05325 10.6142 7.12593 10.6768 7.18676C11.6379 8.12008 12.1673 9.37038 12.1673 10.7073C12.1673 12.0441 11.6379 13.2944 10.6768 14.2278C10.6142 14.2886 10.5642 14.3613 10.5299 14.4416C10.4956 14.5219 10.4776 14.6082 10.477 14.6956C10.4764 14.7829 10.4931 14.8695 10.5262 14.9503C10.5594 15.0311 10.6083 15.1045 10.67 15.1662L12.9747 17.4701C13.0116 17.6081 13.0579 17.7433 13.1134 17.8749C12.981 17.8922 12.8499 17.918 12.7209 17.9522L9.52598 17.0968C9.44167 17.0742 9.35371 17.0686 9.26721 17.0803C9.18071 17.092 9.0974 17.1208 9.02212 17.165C8.94685 17.2091 8.88111 17.2679 8.82873 17.3377C8.77635 17.4075 8.73838 17.4871 8.71702 17.5717C8.38899 18.8704 7.57061 19.9537 6.4124 20.6223C5.25584 21.2909 3.90852 21.4578 2.6185 21.0924C2.53451 21.0686 2.44663 21.0617 2.35996 21.0721C2.27329 21.0826 2.18957 21.1102 2.11365 21.1533C2.03774 21.1964 1.97116 21.2542 1.91777 21.3232C1.86439 21.3923 1.82527 21.4713 1.80269 21.5556L0.0225962 28.2C-0.0715333 28.5513 0.137014 28.9126 0.488435 29.0067L7.13296 30.7867C7.2173 30.8093 7.30529 30.8149 7.39181 30.8032C7.47833 30.7915 7.56166 30.7626 7.63694 30.7184C7.71224 30.6742 7.77799 30.6154 7.83037 30.5456C7.88275 30.4757 7.92071 30.3961 7.94205 30.3115C8.26943 29.0133 9.08755 27.9302 10.2454 27.2614C11.4037 26.5928 12.7512 26.4259 14.0396 26.791C14.1236 26.8149 14.2115 26.8217 14.2981 26.8113C14.3848 26.8009 14.4685 26.7733 14.5445 26.7302C14.6204 26.6871 14.687 26.6293 14.7404 26.5603C14.7938 26.4912 14.8329 26.4122 14.8555 26.3279L15.6798 23.2525C15.7953 23.1428 15.9024 23.0246 16.0001 22.8988C16.0976 23.0242 16.2044 23.1421 16.3196 23.2515L17.1438 26.3278C17.1895 26.4981 17.3015 26.643 17.4548 26.7301C17.6081 26.8172 17.7901 26.8392 17.9596 26.791C19.2483 26.426 20.5958 26.593 21.7539 27.2613C22.9115 27.9295 23.7298 29.0128 24.0581 30.3117C24.0795 30.3963 24.1175 30.4759 24.1699 30.5457C24.2223 30.6155 24.2881 30.6742 24.3634 30.7184C24.4386 30.7626 24.522 30.7914 24.6085 30.8031C24.695 30.8148 24.7829 30.8092 24.8672 30.7866L31.5118 29.0066C31.5953 28.9842 31.6737 28.9456 31.7423 28.8929C31.8109 28.8403 31.8685 28.7746 31.9118 28.6997C31.955 28.6248 31.9831 28.5421 31.9944 28.4564C32.0057 28.3706 32 28.2834 31.9775 28.1999ZM11.7102 20.9797C11.7102 19.9786 12.5246 19.1641 13.5257 19.1641C14.5268 19.1641 15.3413 19.9786 15.3413 20.9797C15.3413 21.9808 14.5268 22.7952 13.5257 22.7952C12.5246 22.7952 11.7102 21.9808 11.7102 20.9797ZM16 14.8415C17.0011 14.8415 17.8155 15.656 17.8155 16.6571C17.8155 17.6582 17.0011 18.4726 16 18.4726C14.9989 18.4726 14.1844 17.6582 14.1844 16.6571C14.1844 15.656 14.9989 14.8415 16 14.8415ZM16.6587 20.9797C16.6587 19.9786 17.4731 19.1641 18.4742 19.1641C19.4753 19.1641 20.2897 19.9786 20.2897 20.9797C20.2897 21.9808 19.4753 22.7952 18.4742 22.7952C17.4731 22.7952 16.6587 21.9808 16.6587 20.9797ZM13.4846 10.7072C13.4846 9.23548 12.9793 7.84685 12.0493 6.73192L16 2.78118L19.9501 6.73186C19.0207 7.84646 18.5156 9.23515 18.5156 10.7071C18.5156 12.179 19.0206 13.5677 19.9501 14.6823L18.9701 15.6623C18.6215 14.6244 17.744 13.8276 16.6588 13.5944V6.99554C16.6588 6.63173 16.3639 6.33683 16.0001 6.33683C15.6363 6.33683 15.3414 6.63173 15.3414 6.99554V13.5944C14.2561 13.8276 13.3784 14.6244 13.0299 15.6624L12.0494 14.6823C12.9793 13.5674 13.4846 12.1787 13.4846 10.7072ZM13.747 25.3751C12.3169 25.1277 10.8616 25.3847 9.58672 26.1205C8.31218 26.8566 7.36226 27.9883 6.8619 29.3502L1.46563 27.9046L2.9113 22.5081C4.3428 22.7559 5.79809 22.4989 7.07131 21.7629C8.34584 21.0272 9.29596 19.8954 9.79691 18.533L11.182 18.9038C10.6914 19.457 10.3927 20.1839 10.3927 20.9797C10.3927 21.3029 10.442 21.6148 10.5333 21.9084L4.78572 25.2266C4.47066 25.4084 4.3627 25.8113 4.54457 26.1263C4.5878 26.2013 4.64538 26.267 4.71401 26.3196C4.78264 26.3723 4.86097 26.411 4.94454 26.4333C5.02811 26.4557 5.11527 26.4614 5.20104 26.4501C5.28682 26.4388 5.36952 26.4107 5.44443 26.3674L11.1817 23.0552C11.7561 23.7031 12.5938 24.1125 13.5257 24.1125C13.7182 24.1125 13.9103 24.0947 14.0996 24.0594L13.747 25.3751ZM25.138 29.3503C24.637 27.9876 23.6869 26.856 22.4126 26.1204C21.138 25.3847 19.6829 25.1278 18.2525 25.3752L17.9 24.0595C18.0862 24.0941 18.278 24.1126 18.4742 24.1126C19.406 24.1126 20.2436 23.7032 20.818 23.0554L26.5549 26.3675C26.6298 26.4108 26.7125 26.4389 26.7983 26.4502C26.8841 26.4615 26.9712 26.4558 27.0548 26.4334C27.1384 26.411 27.2167 26.3724 27.2853 26.3197C27.354 26.267 27.4115 26.2014 27.4548 26.1264C27.6367 25.8114 27.5287 25.4085 27.2136 25.2266L21.4665 21.9087C21.5599 21.6079 21.6073 21.2947 21.6071 20.9797C21.6071 20.1841 21.3085 19.4574 20.8182 18.9043L22.203 18.5331C22.7033 19.895 23.6531 21.0266 24.9278 21.7627C26.202 22.499 27.6572 22.756 29.0881 22.5082L30.5344 27.9047L25.138 29.3503Z" fill="#879097"/>
<path d="M16.5883 17.1099C16.9844 17.1099 17.3054 16.7888 17.3054 16.3928C17.3054 15.9968 16.9844 15.6757 16.5883 15.6757C16.1923 15.6757 15.8713 15.9968 15.8713 16.3928C15.8713 16.7888 16.1923 17.1099 16.5883 17.1099Z" fill="#879097"/>
<path d="M13.1303 21.1607C13.5263 21.1607 13.8473 20.8397 13.8473 20.4437C13.8473 20.0476 13.5263 19.7266 13.1303 19.7266C12.7343 19.7266 12.4132 20.0476 12.4132 20.4437C12.4132 20.8397 12.7343 21.1607 13.1303 21.1607Z" fill="#879097"/>
<path d="M18.1183 21.1607C18.5143 21.1607 18.8353 20.8397 18.8353 20.4437C18.8353 20.0476 18.5143 19.7266 18.1183 19.7266C17.7222 19.7266 17.4012 20.0476 17.4012 20.4437C17.4012 20.8397 17.7222 21.1607 18.1183 21.1607Z" fill="#879097"/>
</g>
<defs>
<clipPath id="clip0_152_416">
<rect width="32" height="32" fill="white"/>
</clipPath>
</defs>
</svg>
