<svg width="32" height="32" viewBox="0 0 32 32" fill="none" xmlns="http://www.w3.org/2000/svg">
<g clip-path="url(#clip0_70_436)">
<path d="M13.9338 19.9306L13.2629 20.5019C13.1883 20.5658 13.0996 20.6165 13.0019 20.6511C12.9042 20.6857 12.7994 20.7035 12.6936 20.7035C12.5878 20.7035 12.483 20.6857 12.3853 20.6511C12.2876 20.6165 12.1989 20.5658 12.1242 20.5019L11.412 19.8953L10.646 20.5337L11.3582 21.1403C11.5377 21.2914 11.75 21.4112 11.9834 21.493C12.2104 21.5688 12.4519 21.6083 12.6957 21.6094C12.9433 21.6104 13.1887 21.5695 13.4176 21.4889C13.6466 21.4084 13.8544 21.2899 14.029 21.1403L14.6998 20.5689L13.9338 19.9306ZM13.9338 19.9306L13.2629 20.5019C13.1883 20.5658 13.0996 20.6165 13.0019 20.6511C12.9042 20.6857 12.7994 20.7035 12.6936 20.7035C12.5878 20.7035 12.483 20.6857 12.3853 20.6511C12.2876 20.6165 12.1989 20.5658 12.1242 20.5019L11.412 19.8953L10.646 20.5337L11.3582 21.1403C11.5377 21.2914 11.75 21.4112 11.9834 21.493C12.2104 21.5688 12.4519 21.6083 12.6957 21.6094C12.9433 21.6104 13.1887 21.5695 13.4176 21.4889C13.6466 21.4084 13.8544 21.2899 14.029 21.1403L14.6998 20.5689L13.9338 19.9306ZM13.9338 19.9306L13.2629 20.5019C13.1883 20.5658 13.0996 20.6165 13.0019 20.6511C12.9042 20.6857 12.7994 20.7035 12.6936 20.7035C12.5878 20.7035 12.483 20.6857 12.3853 20.6511C12.2876 20.6165 12.1989 20.5658 12.1242 20.5019L11.412 19.8953L10.646 20.5337L11.3582 21.1403C11.5377 21.2914 11.75 21.4112 11.9834 21.493C12.2104 21.5688 12.4519 21.6083 12.6957 21.6094C12.9433 21.6104 13.1887 21.5695 13.4176 21.4889C13.6466 21.4084 13.8544 21.2899 14.029 21.1403L14.6998 20.5689L13.9338 19.9306ZM13.9338 19.9306L13.2629 20.5019C13.1883 20.5658 13.0996 20.6165 13.0019 20.6511C12.9042 20.6857 12.7994 20.7035 12.6936 20.7035C12.5878 20.7035 12.483 20.6857 12.3853 20.6511C12.2876 20.6165 12.1989 20.5658 12.1242 20.5019L11.412 19.8953L10.646 20.5337L11.3582 21.1403C11.5377 21.2914 11.75 21.4112 11.9834 21.493C12.2104 21.5688 12.4519 21.6083 12.6957 21.6094C12.9433 21.6104 13.1887 21.5695 13.4176 21.4889C13.6466 21.4084 13.8544 21.2899 14.029 21.1403L14.6998 20.5689L13.9338 19.9306ZM13.9338 19.9306L13.2629 20.5019C13.1883 20.5658 13.0996 20.6165 13.0019 20.6511C12.9042 20.6857 12.7994 20.7035 12.6936 20.7035C12.5878 20.7035 12.483 20.6857 12.3853 20.6511C12.2876 20.6165 12.1989 20.5658 12.1242 20.5019L11.412 19.8953L10.646 20.5337L11.3582 21.1403C11.5377 21.2914 11.75 21.4112 11.9834 21.493C12.2104 21.5688 12.4519 21.6083 12.6957 21.6094C12.9433 21.6104 13.1887 21.5695 13.4176 21.4889C13.6466 21.4084 13.8544 21.2899 14.029 21.1403L14.6998 20.5689L13.9338 19.9306ZM13.9338 19.9306L13.2629 20.5019C13.1883 20.5658 13.0996 20.6165 13.0019 20.6511C12.9042 20.6857 12.7994 20.7035 12.6936 20.7035C12.5878 20.7035 12.483 20.6857 12.3853 20.6511C12.2876 20.6165 12.1989 20.5658 12.1242 20.5019L11.412 19.8953L10.646 20.5337L11.3582 21.1403C11.5377 21.2914 11.75 21.4112 11.9834 21.493C12.2104 21.5688 12.4519 21.6083 12.6957 21.6094C12.9433 21.6104 13.1887 21.5695 13.4176 21.4889C13.6466 21.4084 13.8544 21.2899 14.029 21.1403L14.6998 20.5689L13.9338 19.9306ZM13.9338 19.9306L13.2629 20.5019C13.1883 20.5658 13.0996 20.6165 13.0019 20.6511C12.9042 20.6857 12.7994 20.7035 12.6936 20.7035C12.5878 20.7035 12.483 20.6857 12.3853 20.6511C12.2876 20.6165 12.1989 20.5658 12.1242 20.5019L11.412 19.8953L10.646 20.5337L11.3582 21.1403C11.5377 21.2914 11.75 21.4112 11.9834 21.493C12.2104 21.5688 12.4519 21.6083 12.6957 21.6094C12.9433 21.6104 13.1887 21.5695 13.4176 21.4889C13.6466 21.4084 13.8544 21.2899 14.029 21.1403L14.6998 20.5689L13.9338 19.9306ZM13.9338 19.9306L13.2629 20.5019C13.1883 20.5658 13.0996 20.6165 13.0019 20.6511C12.9042 20.6857 12.7994 20.7035 12.6936 20.7035C12.5878 20.7035 12.483 20.6857 12.3853 20.6511C12.2876 20.6165 12.1989 20.5658 12.1242 20.5019L11.412 19.8953L10.646 20.5337L11.3582 21.1403C11.5377 21.2914 11.75 21.4112 11.9834 21.493C12.2104 21.5688 12.4519 21.6083 12.6957 21.6094C12.9433 21.6104 13.1887 21.5695 13.4176 21.4889C13.6466 21.4084 13.8544 21.2899 14.029 21.1403L14.6998 20.5689L13.9338 19.9306ZM13.9338 19.9306L13.2629 20.5019C13.1883 20.5658 13.0996 20.6165 13.0019 20.6511C12.9042 20.6857 12.7994 20.7035 12.6936 20.7035C12.5878 20.7035 12.483 20.6857 12.3853 20.6511C12.2876 20.6165 12.1989 20.5658 12.1242 20.5019L11.412 19.8953L10.646 20.5337L11.3582 21.1403C11.5377 21.2914 11.75 21.4112 11.9834 21.493C12.2104 21.5688 12.4519 21.6083 12.6957 21.6094C12.9433 21.6104 13.1887 21.5695 13.4176 21.4889C13.6466 21.4084 13.8544 21.2899 14.029 21.1403L14.6998 20.5689L13.9338 19.9306ZM13.9338 19.9306L13.2629 20.5019C13.1883 20.5658 13.0996 20.6165 13.0019 20.6511C12.9042 20.6857 12.7994 20.7035 12.6936 20.7035C12.5878 20.7035 12.483 20.6857 12.3853 20.6511C12.2876 20.6165 12.1989 20.5658 12.1242 20.5019L11.412 19.8953L10.646 20.5337L11.3582 21.1403C11.5377 21.2914 11.75 21.4112 11.9834 21.493C12.2104 21.5688 12.4519 21.6083 12.6957 21.6094C12.9433 21.6104 13.1887 21.5695 13.4176 21.4889C13.6466 21.4084 13.8544 21.2899 14.029 21.1403L14.6998 20.5689L13.9338 19.9306ZM13.9338 19.9306L13.2629 20.5019C13.1883 20.5658 13.0996 20.6165 13.0019 20.6511C12.9042 20.6857 12.7994 20.7035 12.6936 20.7035C12.5878 20.7035 12.483 20.6857 12.3853 20.6511C12.2876 20.6165 12.1989 20.5658 12.1242 20.5019L11.412 19.8953L10.646 20.5337L11.3582 21.1403C11.5377 21.2914 11.75 21.4112 11.9834 21.493C12.2104 21.5688 12.4519 21.6083 12.6957 21.6094C12.9433 21.6104 13.1887 21.5695 13.4176 21.4889C13.6466 21.4084 13.8544 21.2899 14.029 21.1403L14.6998 20.5689L13.9338 19.9306ZM13.9338 19.9306L13.2629 20.5019C13.1883 20.5658 13.0996 20.6165 13.0019 20.6511C12.9042 20.6857 12.7994 20.7035 12.6936 20.7035C12.5878 20.7035 12.483 20.6857 12.3853 20.6511C12.2876 20.6165 12.1989 20.5658 12.1242 20.5019L11.412 19.8953L10.646 20.5337L11.3582 21.1403C11.5377 21.2914 11.75 21.4112 11.9834 21.493C12.2104 21.5688 12.4519 21.6083 12.6957 21.6094C12.9433 21.6104 13.1887 21.5695 13.4176 21.4889C13.6466 21.4084 13.8544 21.2899 14.029 21.1403L14.6998 20.5689L13.9338 19.9306ZM13.9338 19.9306L13.2629 20.5019C13.1883 20.5658 13.0996 20.6165 13.0019 20.6511C12.9042 20.6857 12.7994 20.7035 12.6936 20.7035C12.5878 20.7035 12.483 20.6857 12.3853 20.6511C12.2876 20.6165 12.1989 20.5658 12.1242 20.5019L11.412 19.8953L10.646 20.5337L11.3582 21.1403C11.5377 21.2914 11.75 21.4112 11.9834 21.493C12.2104 21.5688 12.4519 21.6083 12.6957 21.6094C12.9433 21.6104 13.1887 21.5695 13.4176 21.4889C13.6466 21.4084 13.8544 21.2899 14.029 21.1403L14.6998 20.5689L13.9338 19.9306ZM26.6874 16.0016L31.441 11.9491C31.6172 11.8005 31.757 11.6236 31.8522 11.4287C31.9475 11.2337 31.9963 11.0246 31.9959 10.8134C31.9955 10.386 31.796 9.97627 31.441 9.67421L20.6418 0.472398C20.4668 0.32257 20.2587 0.20368 20.0295 0.122554C19.8003 0.0414279 19.5546 -0.000335693 19.3064 -0.000335693C19.0583 -0.000335693 18.8125 0.0414279 18.5834 0.122554C18.3542 0.20368 18.1461 0.32257 17.971 0.472398L16 2.1477L14.029 0.472398C13.8536 0.322992 13.6455 0.204474 13.4163 0.123613C13.1872 0.0427518 12.9416 0.00113216 12.6936 0.00113216C12.4456 0.00113216 12.2 0.0427518 11.9708 0.123613C11.7417 0.204474 11.5335 0.322992 11.3582 0.472398L0.554872 9.67421C0.378968 9.82332 0.239384 10.0006 0.144139 10.1958C0.048893 10.391 -0.000137613 10.6003 -0.000137613 10.8116C-0.000137613 11.023 0.048893 11.2323 0.144139 11.4275C0.239384 11.6227 0.378968 11.8 0.554872 11.9491L5.3085 16.0016L0.554872 20.0505C0.378841 20.1999 0.239171 20.3774 0.14387 20.5729C0.0485687 20.7684 -0.000488281 20.978 -0.000488281 21.1897C-0.000488281 21.4014 0.0485687 21.611 0.14387 21.8064C0.239171 22.0019 0.378841 22.1795 0.554872 22.3289L11.3665 31.5307C11.5449 31.6829 11.7576 31.8029 11.9917 31.8834C12.2181 31.9609 12.46 32.0004 12.7039 31.9998C12.9516 32.0008 13.197 31.9599 13.4259 31.8793C13.6548 31.7988 13.8626 31.6803 14.0373 31.5307L14.7039 30.9629L13.9379 30.3104L13.2712 30.8782C13.1174 31.0022 12.9137 31.0714 12.7019 31.0714C12.4901 31.0714 12.2863 31.0022 12.1325 30.8782L1.32506 21.6764C1.17708 21.5456 1.09402 21.3713 1.09318 21.1897C1.09402 21.0081 1.17708 20.8337 1.32506 20.703L6.07454 16.654L8.61698 18.8161L7.16357 20.0505C6.81107 20.3536 6.61333 20.763 6.61333 21.1897C6.61333 21.6164 6.81107 22.0258 7.16357 22.3289L15.2298 29.1959L16 29.8554L16.2981 30.0988L17.9545 31.5272C18.1298 31.6809 18.3415 31.8011 18.5756 31.8799C18.8021 31.9571 19.0438 31.9966 19.2878 31.9963C19.5355 31.9973 19.7809 31.9563 20.0098 31.8758C20.2387 31.7953 20.4465 31.6768 20.6211 31.5272L31.4244 22.3254C31.6005 22.176 31.7401 21.9984 31.8354 21.8029C31.9307 21.6074 31.9798 21.3978 31.9798 21.1862C31.9798 20.9745 31.9307 20.7649 31.8354 20.5694C31.7401 20.3739 31.6005 20.1964 31.4244 20.047L26.6874 16.0016ZM18.7329 1.13546C18.8869 1.01041 19.0916 0.940642 19.3044 0.940642C19.5171 0.940642 19.7218 1.01041 19.8758 1.13546L30.6832 10.3408C30.7578 10.4048 30.8167 10.4808 30.8565 10.5643C30.8963 10.6479 30.9162 10.7374 30.9151 10.8275C30.9158 10.9174 30.8953 11.0065 30.8548 11.0896C30.8142 11.1726 30.7545 11.2478 30.6791 11.3107L25.9255 15.3491L23.3747 13.1835L24.8282 11.9491C25.1804 11.6466 25.378 11.2377 25.378 10.8116C25.378 10.3856 25.1804 9.97674 24.8282 9.67421L16.7495 2.80018L18.7329 1.13546ZM6.84059 16.0016L8.08282 14.9435L7.32092 14.291L6.07868 15.3491L1.31678 11.2966C1.17117 11.1656 1.09001 10.992 1.09001 10.8116C1.09001 10.6312 1.17117 10.4577 1.31678 10.3267L12.1242 1.13546C12.278 1.01144 12.4818 0.942318 12.6936 0.942318C12.9054 0.942318 13.1091 1.01144 13.2629 1.13546L24.0704 10.3408C24.1454 10.4044 24.2049 10.4799 24.2455 10.5632C24.2861 10.6464 24.307 10.7356 24.307 10.8258C24.307 10.9159 24.2861 11.0051 24.2455 11.0883C24.2049 11.1716 24.1454 11.2471 24.0704 11.3107L22.6211 12.5487L20.6418 10.8628C20.4665 10.7134 20.2583 10.5949 20.0292 10.514C19.8 10.4331 19.5544 10.3915 19.3064 10.3915C19.0584 10.3915 18.8128 10.4331 18.5837 10.514C18.3545 10.5949 18.1464 10.7134 17.971 10.8628L16 12.5416L14.029 10.8628C13.8536 10.7134 13.6455 10.5949 13.4163 10.514C13.1872 10.4331 12.9416 10.3915 12.6936 10.3915C12.4456 10.3915 12.2 10.4331 11.9708 10.514C11.7417 10.5949 11.5335 10.7134 11.3582 10.8628L9.37889 12.5487L7.92961 11.3107C7.85554 11.2471 7.79692 11.1717 7.75713 11.0888C7.71734 11.0059 7.69715 10.9171 7.69773 10.8275C7.69566 10.7372 7.71515 10.6475 7.75501 10.5639C7.79487 10.4802 7.85427 10.4043 7.92961 10.3408L14.6998 4.57424L13.9338 3.92175L7.16357 9.67421C6.98794 9.82294 6.84881 9.99995 6.75426 10.1949C6.65971 10.3899 6.61164 10.5989 6.61284 10.8099C6.61223 11.0213 6.66056 11.2307 6.75506 11.4262C6.84956 11.6217 6.98837 11.7993 7.16357 11.9491L11.9213 16.0016L9.37889 18.1636L6.84059 16.0016ZM15.234 13.18L12.6874 15.3491L10.1449 13.1835L12.1242 11.5012C12.278 11.3771 12.4818 11.308 12.6936 11.308C12.9054 11.308 13.1091 11.3771 13.2629 11.5012L15.234 13.18ZM30.6791 21.6764L19.8758 30.8782C19.7218 31.0033 19.5171 31.073 19.3044 31.073C19.0916 31.073 18.8869 31.0033 18.7329 30.8782L16.7495 29.2029L24.8199 22.3289C25.1724 22.0258 25.3701 21.6164 25.3701 21.1897C25.3701 20.763 25.1724 20.3536 24.8199 20.0505L24.6667 19.9235L23.9006 20.576L24.0538 20.703C24.2007 20.8342 24.2826 21.0084 24.2826 21.1897C24.2826 21.3709 24.2007 21.5452 24.0538 21.6764L15.9834 28.5504L7.92961 21.6764C7.78164 21.5456 7.69858 21.3713 7.69773 21.1897C7.69637 21.0995 7.71619 21.01 7.75601 20.9264C7.79583 20.8428 7.85485 20.7669 7.92961 20.703L12.6874 16.654L17.9917 21.1544C18.1694 21.3058 18.3805 21.4257 18.6128 21.5071C18.9608 21.6265 19.3421 21.6567 19.7099 21.594C20.0777 21.5314 20.416 21.3786 20.6832 21.1544L24.6667 17.758L23.9006 17.109L22.6584 18.1671L20.0621 16.0016L21.3044 14.9435L20.5383 14.291L19.2961 15.3491L18.0166 14.2592L17.2505 14.9082L18.53 16.0016L15.9834 18.1706L13.4369 16.0016L18.7205 11.5012C18.7954 11.4372 18.8845 11.3865 18.9826 11.3519C19.0807 11.3174 19.1858 11.2998 19.2919 11.3001C19.3981 11.2992 19.5035 11.3166 19.6017 11.3511C19.6998 11.3857 19.7888 11.4367 19.8634 11.5012L30.6708 20.703C30.8188 20.8337 30.9018 21.0081 30.9027 21.1897C30.9049 21.2794 30.8863 21.3685 30.8479 21.4521C30.8096 21.5356 30.7522 21.6118 30.6791 21.6764ZM16.7495 18.8231L19.2961 16.654L21.8385 18.8161L19.8592 20.5019C19.7052 20.627 19.5006 20.6968 19.2878 20.6968C19.075 20.6968 18.8704 20.627 18.7164 20.5019L16.7495 18.8231ZM13.2464 20.5019C13.1717 20.5658 13.083 20.6165 12.9853 20.6511C12.8876 20.6857 12.7828 20.7035 12.677 20.7035C12.5712 20.7035 12.4664 20.6857 12.3687 20.6511C12.271 20.6165 12.1823 20.5658 12.1077 20.5019L11.3955 19.8953L10.646 20.5337L11.3582 21.1403C11.5377 21.2914 11.75 21.4112 11.9834 21.493C12.2104 21.5688 12.4519 21.6083 12.6957 21.6094C12.9433 21.6104 13.1887 21.5695 13.4176 21.4889C13.6466 21.4084 13.8544 21.2899 14.029 21.1403L14.6998 20.5689L13.9338 19.9165L13.2464 20.5019ZM13.9172 19.9306L13.2464 20.5019C13.1717 20.5658 13.083 20.6165 12.9853 20.6511C12.8876 20.6857 12.7828 20.7035 12.677 20.7035C12.5712 20.7035 12.4664 20.6857 12.3687 20.6511C12.271 20.6165 12.1823 20.5658 12.1077 20.5019L11.3955 19.8953L10.646 20.5337L11.3582 21.1403C11.5377 21.2914 11.75 21.4112 11.9834 21.493C12.2104 21.5688 12.4519 21.6083 12.6957 21.6094C12.9433 21.6104 13.1887 21.5695 13.4176 21.4889C13.6466 21.4084 13.8544 21.2899 14.029 21.1403L14.6998 20.5689L13.9172 19.9306ZM13.9172 19.9306L13.2464 20.5019C13.1717 20.5658 13.083 20.6165 12.9853 20.6511C12.8876 20.6857 12.7828 20.7035 12.677 20.7035C12.5712 20.7035 12.4664 20.6857 12.3687 20.6511C12.271 20.6165 12.1823 20.5658 12.1077 20.5019L11.3955 19.8953L10.646 20.5337L11.3582 21.1403C11.5377 21.2914 11.75 21.4112 11.9834 21.493C12.2104 21.5688 12.4519 21.6083 12.6957 21.6094C12.9433 21.6104 13.1887 21.5695 13.4176 21.4889C13.6466 21.4084 13.8544 21.2899 14.029 21.1403L14.6998 20.5689L13.9172 19.9306ZM13.9172 19.9306L13.2464 20.5019C13.1717 20.5658 13.083 20.6165 12.9853 20.6511C12.8876 20.6857 12.7828 20.7035 12.677 20.7035C12.5712 20.7035 12.4664 20.6857 12.3687 20.6511C12.271 20.6165 12.1823 20.5658 12.1077 20.5019L11.3955 19.8953L10.646 20.5337L11.3582 21.1403C11.5377 21.2914 11.75 21.4112 11.9834 21.493C12.2104 21.5688 12.4519 21.6083 12.6957 21.6094C12.9433 21.6104 13.1887 21.5695 13.4176 21.4889C13.6466 21.4084 13.8544 21.2899 14.029 21.1403L14.6998 20.5689L13.9172 19.9306ZM13.9172 19.9306L13.2464 20.5019C13.1717 20.5658 13.083 20.6165 12.9853 20.6511C12.8876 20.6857 12.7828 20.7035 12.677 20.7035C12.5712 20.7035 12.4664 20.6857 12.3687 20.6511C12.271 20.6165 12.1823 20.5658 12.1077 20.5019L11.3955 19.8953L10.646 20.5337L11.3582 21.1403C11.5377 21.2914 11.75 21.4112 11.9834 21.493C12.2104 21.5688 12.4519 21.6083 12.6957 21.6094C12.9433 21.6104 13.1887 21.5695 13.4176 21.4889C13.6466 21.4084 13.8544 21.2899 14.029 21.1403L14.6998 20.5689L13.9172 19.9306ZM13.9172 19.9306L13.2464 20.5019C13.1717 20.5658 13.083 20.6165 12.9853 20.6511C12.8876 20.6857 12.7828 20.7035 12.677 20.7035C12.5712 20.7035 12.4664 20.6857 12.3687 20.6511C12.271 20.6165 12.1823 20.5658 12.1077 20.5019L11.3955 19.8953L10.646 20.5337L11.3582 21.1403C11.5377 21.2914 11.75 21.4112 11.9834 21.493C12.2104 21.5688 12.4519 21.6083 12.6957 21.6094C12.9433 21.6104 13.1887 21.5695 13.4176 21.4889C13.6466 21.4084 13.8544 21.2899 14.029 21.1403L14.6998 20.5689L13.9172 19.9306ZM13.9172 19.9306L13.2464 20.5019C13.1717 20.5658 13.083 20.6165 12.9853 20.6511C12.8876 20.6857 12.7828 20.7035 12.677 20.7035C12.5712 20.7035 12.4664 20.6857 12.3687 20.6511C12.271 20.6165 12.1823 20.5658 12.1077 20.5019L11.3955 19.8953L10.646 20.5337L11.3582 21.1403C11.5377 21.2914 11.75 21.4112 11.9834 21.493C12.2104 21.5688 12.4519 21.6083 12.6957 21.6094C12.9433 21.6104 13.1887 21.5695 13.4176 21.4889C13.6466 21.4084 13.8544 21.2899 14.029 21.1403L14.6998 20.5689L13.9172 19.9306ZM13.9172 19.9306L13.2464 20.5019C13.1717 20.5658 13.083 20.6165 12.9853 20.6511C12.8876 20.6857 12.7828 20.7035 12.677 20.7035C12.5712 20.7035 12.4664 20.6857 12.3687 20.6511C12.271 20.6165 12.1823 20.5658 12.1077 20.5019L11.3955 19.8953L10.646 20.5337L11.3582 21.1403C11.5377 21.2914 11.75 21.4112 11.9834 21.493C12.2104 21.5688 12.4519 21.6083 12.6957 21.6094C12.9433 21.6104 13.1887 21.5695 13.4176 21.4889C13.6466 21.4084 13.8544 21.2899 14.029 21.1403L14.6998 20.5689L13.9172 19.9306ZM13.9172 19.9306L13.2464 20.5019C13.1717 20.5658 13.083 20.6165 12.9853 20.6511C12.8876 20.6857 12.7828 20.7035 12.677 20.7035C12.5712 20.7035 12.4664 20.6857 12.3687 20.6511C12.271 20.6165 12.1823 20.5658 12.1077 20.5019L11.3955 19.8953L10.646 20.5337L11.3582 21.1403C11.5377 21.2914 11.75 21.4112 11.9834 21.493C12.2104 21.5688 12.4519 21.6083 12.6957 21.6094C12.9433 21.6104 13.1887 21.5695 13.4176 21.4889C13.6466 21.4084 13.8544 21.2899 14.029 21.1403L14.6998 20.5689L13.9172 19.9306ZM13.9172 19.9306L13.2464 20.5019C13.1717 20.5658 13.083 20.6165 12.9853 20.6511C12.8876 20.6857 12.7828 20.7035 12.677 20.7035C12.5712 20.7035 12.4664 20.6857 12.3687 20.6511C12.271 20.6165 12.1823 20.5658 12.1077 20.5019L11.3955 19.8953L10.646 20.5337L11.3582 21.1403C11.5377 21.2914 11.75 21.4112 11.9834 21.493C12.2104 21.5688 12.4519 21.6083 12.6957 21.6094C12.9433 21.6104 13.1887 21.5695 13.4176 21.4889C13.6466 21.4084 13.8544 21.2899 14.029 21.1403L14.6998 20.5689L13.9172 19.9306ZM13.9172 19.9306L13.2464 20.5019C13.1717 20.5658 13.083 20.6165 12.9853 20.6511C12.8876 20.6857 12.7828 20.7035 12.677 20.7035C12.5712 20.7035 12.4664 20.6857 12.3687 20.6511C12.271 20.6165 12.1823 20.5658 12.1077 20.5019L11.3955 19.8953L10.646 20.5337L11.3582 21.1403C11.5377 21.2914 11.75 21.4112 11.9834 21.493C12.2104 21.5688 12.4519 21.6083 12.6957 21.6094C12.9433 21.6104 13.1887 21.5695 13.4176 21.4889C13.6466 21.4084 13.8544 21.2899 14.029 21.1403L14.6998 20.5689L13.9172 19.9306ZM13.9172 19.9306L13.2464 20.5019C13.1717 20.5658 13.083 20.6165 12.9853 20.6511C12.8876 20.6857 12.7828 20.7035 12.677 20.7035C12.5712 20.7035 12.4664 20.6857 12.3687 20.6511C12.271 20.6165 12.1823 20.5658 12.1077 20.5019L11.3955 19.8953L10.646 20.5337L11.3582 21.1403C11.5377 21.2914 11.75 21.4112 11.9834 21.493C12.2104 21.5688 12.4519 21.6083 12.6957 21.6094C12.9433 21.6104 13.1887 21.5695 13.4176 21.4889C13.6466 21.4084 13.8544 21.2899 14.029 21.1403L14.6998 20.5689L13.9172 19.9306Z" fill="#879097"/>
</g>
<defs>
<clipPath id="clip0_70_436">
<rect width="32" height="32" fill="white"/>
</clipPath>
</defs>
</svg>
