<svg width="32" height="32" viewBox="0 0 32 32" fill="none" xmlns="http://www.w3.org/2000/svg">
<g clip-path="url(#clip0_70_434)">
<path d="M31.1111 12.9617C30.527 10.4022 29.6026 7.291 28.7603 6.23484C27.9181 5.17861 25.0905 3.58515 22.7252 2.44599C20.3598 1.3069 17.351 0.0896912 16.0001 0.0896912C14.6493 0.0896912 11.6404 1.3069 9.27507 2.44592C6.90968 3.58508 4.08209 5.17854 3.2399 6.23477C2.39764 7.29093 1.47335 10.4021 0.889106 12.9617C0.304935 15.5212 -0.212202 18.7255 0.0883489 20.0424C0.3889 21.3593 2.24513 24.0219 3.88202 26.0745C5.51891 28.1271 7.70163 30.5292 8.9187 31.1152C10.1358 31.7014 13.3748 31.9103 16.0001 31.9103C18.6254 31.9103 21.8644 31.7014 23.0815 31.1152C24.2987 30.5291 26.4813 28.1271 28.1182 26.0745C29.7551 24.0219 31.6113 21.3593 31.9119 20.0424C32.2125 18.7255 31.6953 15.5212 31.1111 12.9617ZM30.9054 19.8127C30.4307 21.8923 24.5555 29.2598 22.6336 30.1852C21.7733 30.5996 19.1075 30.8779 16.0002 30.8779C12.8929 30.8779 10.2271 30.5995 9.36667 30.1852C7.44478 29.2598 1.56949 21.8923 1.09482 19.8127C0.620145 17.733 2.71705 8.54613 4.04699 6.8784C5.37692 5.21075 13.867 1.12204 16.0001 1.12204C18.1332 1.12204 26.6233 5.21068 27.9532 6.8784C29.2832 8.54613 31.3801 17.7331 30.9054 19.8127Z" fill="#879097"/>
<path d="M21.9785 3.99622C18.9986 2.56112 16.7153 1.81033 16.0001 1.81033H15.9999C15.2846 1.81033 13.0014 2.56112 10.0215 3.99616C9.45835 4.26707 8.90053 4.54897 8.34838 4.84172C8.28797 4.8732 8.23439 4.91632 8.19073 4.96861C8.14706 5.02089 8.11418 5.0813 8.09398 5.14636C8.07377 5.21141 8.06664 5.27982 8.073 5.34764C8.07936 5.41546 8.09908 5.48136 8.13102 5.54152C8.16297 5.60169 8.2065 5.65493 8.25912 5.69819C8.31174 5.74145 8.37241 5.77387 8.43761 5.79357C8.50282 5.81328 8.57128 5.81988 8.63905 5.813C8.70682 5.80612 8.77256 5.78589 8.83248 5.75348C9.37271 5.46713 9.91847 5.19133 10.4694 4.92623C13.5272 3.45369 15.5803 2.84261 16 2.84268C16.4198 2.84268 18.473 3.4539 21.5306 4.92623C24.5881 6.3987 26.3461 7.62293 26.6078 7.95108C26.8696 8.27936 27.6719 10.2657 28.4271 13.5742C29.1823 16.8827 29.3213 19.0206 29.2279 19.4298C29.1345 19.839 28.0817 21.7048 25.9658 24.3581C23.8499 27.0113 22.2652 28.4529 21.8869 28.635C21.5088 28.8171 19.3944 29.1573 16.001 29.1573H16.0001C12.6063 29.1573 10.4913 28.8171 10.1131 28.6349C9.73489 28.4528 8.15031 27.0114 6.03434 24.358C3.91837 21.7047 2.86558 19.839 2.77226 19.4297C2.67887 19.0205 2.81782 16.8827 3.57302 13.5742C4.32821 10.2657 5.13048 8.27929 5.39229 7.95108C5.48582 7.8338 5.9556 7.43304 7.06435 6.75589C7.18004 6.68401 7.26264 6.5693 7.29412 6.43678C7.32561 6.30426 7.30344 6.16467 7.23245 6.04842C7.16145 5.93217 7.04739 5.8487 6.91511 5.8162C6.78284 5.78369 6.64307 5.80479 6.52629 5.87489C5.94473 6.23002 4.9192 6.88852 4.58513 7.30744C4.13916 7.8667 3.30254 10.12 2.56655 13.3445C1.83055 16.569 1.6066 18.9621 1.76579 19.6595C1.92498 20.3569 3.1651 22.4158 5.22725 25.0017C7.28947 27.5876 9.02085 29.2548 9.66524 29.565C10.3097 29.8754 12.6926 30.1896 16.0001 30.1896H16.0012C19.308 30.1896 21.6906 29.8755 22.335 29.5651C22.9795 29.2547 24.7109 27.5876 26.773 25.0017C28.8352 22.4158 30.0753 20.3569 30.2345 19.6595C30.3937 18.9621 30.1697 16.569 29.4337 13.3445C28.6977 10.12 27.8611 7.8667 27.4151 7.30744C26.969 6.74819 24.9584 5.43125 21.9785 3.99622Z" fill="#879097"/>
<path d="M20.7734 24.2622C20.8732 24.2622 20.9708 24.2333 21.0544 24.1789C23.7072 22.4559 25.291 19.5412 25.291 16.3819C25.291 13.2227 23.7072 10.3079 21.0544 8.58495C20.9556 8.52073 20.8377 8.49231 20.7204 8.5044C20.6031 8.5165 20.4935 8.56838 20.4098 8.65143L19.1669 9.88439C18.1806 9.40318 17.0976 9.15283 16.0001 9.15232C14.9026 9.15282 13.8196 9.4032 12.8332 9.88446L11.5901 8.65157C11.5064 8.56855 11.3968 8.5167 11.2795 8.50462C11.1622 8.49253 11.0443 8.52095 10.9454 8.58515C8.29285 10.3082 6.70923 13.2229 6.70923 16.3819C6.70923 19.541 8.29285 22.4557 10.9454 24.1787C11.0291 24.2331 11.1267 24.262 11.2264 24.262C11.359 24.262 11.4905 24.211 11.5901 24.1123L12.8332 22.8794C13.8195 23.3607 14.9025 23.6111 16.0001 23.6116C17.0984 23.6116 18.185 23.3591 19.1669 22.8795L20.4097 24.1125C20.5064 24.2085 20.6372 24.2623 20.7734 24.2622ZM19.0114 10.9666L19.0116 10.9667C19.0648 10.9964 19.1178 11.0271 19.1705 11.0587L17.4623 12.7531L16.364 11.6612C16.2674 11.5651 16.1367 11.5111 16.0004 11.511C15.8641 11.511 15.7334 11.5648 15.6366 11.6608L14.5367 12.7518L12.8297 11.0587C12.8826 11.0271 12.9358 10.9963 12.9895 10.9662C13.9056 10.4549 14.9466 10.1845 16.0002 10.1845C17.0539 10.1846 18.0952 10.4551 19.0114 10.9666ZM18.9286 15.6558L19.6581 16.3814L17.4645 18.557L15.2801 16.3819L16.0151 15.65L17.0964 16.7446C17.1441 16.7929 17.2008 16.8313 17.2634 16.8576C17.3259 16.8839 17.393 16.8977 17.4609 16.898H17.4636C17.5998 16.898 17.7304 16.8442 17.8271 16.7483L18.9286 15.6558ZM15.6565 14.5501L15.6553 14.5513L15.6511 14.5556L14.1843 16.0163C14.1362 16.0642 14.098 16.1212 14.0719 16.184C14.0458 16.2467 14.0324 16.314 14.0324 16.382C14.0324 16.4499 14.0458 16.5172 14.0719 16.58C14.098 16.6428 14.1362 16.6998 14.1843 16.7477L16.7314 19.2841L15.9999 20.0094L12.3426 16.382L13.3629 15.37C13.4213 15.3318 13.4714 15.2821 13.5101 15.224L15.9996 12.7548L16.73 13.481L15.6565 14.5501ZM11.1661 23.0788C9.01405 21.5252 7.74158 19.0517 7.74158 16.3818C7.74158 13.7121 9.01405 11.2386 11.1661 9.68495L11.9104 10.4231C11.8431 10.4695 11.7766 10.5169 11.7109 10.5654C11.6511 10.6097 11.6015 10.6663 11.5657 10.7315C11.5298 10.7967 11.5084 10.8689 11.503 10.9431C11.4976 11.0174 11.5083 11.0919 11.5344 11.1616C11.5606 11.2313 11.6014 11.2945 11.6542 11.347L13.8036 13.4788L13.0731 14.2033L10.93 12.0777C10.8772 12.0252 10.8137 11.9848 10.7437 11.9592C10.6738 11.9337 10.5992 11.9236 10.525 11.9297C10.4508 11.9357 10.3788 11.9576 10.3139 11.994C10.249 12.0305 10.1927 12.0805 10.1489 12.1407C9.24708 13.3818 8.77041 14.8483 8.77041 16.3818C8.77041 18.7717 9.95816 20.998 11.9101 22.3409L11.1661 23.0788ZM12.9888 21.7971L12.9886 21.7971C11.0235 20.6995 9.80276 18.6246 9.80276 16.3819C9.80276 15.2715 10.0945 14.2019 10.6513 13.2554L12.3401 14.9304L11.2462 16.0154C11.1978 16.0634 11.1594 16.1205 11.1332 16.1834C11.107 16.2462 11.0936 16.3137 11.0936 16.3818C11.0936 16.45 11.107 16.5174 11.1332 16.5803C11.1594 16.6432 11.1978 16.7003 11.2462 16.7483L15.6365 21.1028C15.7371 21.2026 15.8686 21.2525 16 21.2525C16.1315 21.2525 16.2628 21.2026 16.3635 21.1028L17.8268 19.6517L17.8277 19.6508L20.7541 16.7483C20.8024 16.7004 20.8408 16.6434 20.867 16.5805C20.8932 16.5177 20.9067 16.4503 20.9067 16.3822C20.9068 16.3141 20.8934 16.2467 20.8673 16.1839C20.8411 16.121 20.8028 16.0639 20.7546 16.0159L19.6617 14.9288L21.3489 13.2554C21.9058 14.2019 22.1975 15.2715 22.1975 16.3819C22.1975 18.6246 20.9768 20.6995 19.0117 21.7971L19.0115 21.7971C18.0953 22.3088 17.0541 22.5792 16.0003 22.5792C14.9462 22.5793 13.905 22.3088 12.9888 21.7971ZM23.2297 16.3819C23.2297 14.8485 22.7531 13.3819 21.8512 12.1408C21.8075 12.0806 21.7512 12.0306 21.6863 11.9941C21.6214 11.9577 21.5494 11.9358 21.4752 11.9298C21.401 11.9237 21.3263 11.9338 21.2564 11.9593C21.1865 11.9849 21.1229 12.0253 21.0701 12.0778L18.5657 14.5618L17.4674 15.6512L16.7466 14.9215L17.8262 13.8463L17.8271 13.8454L20.346 11.3471C20.3989 11.2947 20.4398 11.2314 20.4659 11.1617C20.492 11.0921 20.5027 11.0175 20.4973 10.9433C20.492 10.8691 20.4706 10.7969 20.4347 10.7317C20.3988 10.6665 20.3492 10.6098 20.2894 10.5655C20.2237 10.517 20.1571 10.4695 20.0898 10.4231L20.834 9.68488C22.9862 11.2385 24.2588 13.712 24.2588 16.382C24.2588 19.052 22.9862 21.5254 20.834 23.0791L20.0902 22.3412C22.0421 20.9982 23.2297 18.7719 23.2297 16.3819ZM19.1889 26.4447C18.1617 26.7707 17.0888 26.9361 16.0001 26.9361C14.9115 26.9361 13.8385 26.7708 12.8114 26.4447C12.5398 26.3589 12.2495 26.5088 12.1633 26.7805C12.1218 26.911 12.134 27.0526 12.1969 27.1741C12.2599 27.2957 12.3686 27.3872 12.499 27.4286C13.6275 27.7868 14.8054 27.9684 16.0002 27.9684C17.195 27.9684 18.373 27.7868 19.5014 27.4286C19.566 27.4081 19.6259 27.3751 19.6778 27.3314C19.7296 27.2878 19.7723 27.2343 19.8035 27.1741C19.8347 27.114 19.8537 27.0482 19.8595 26.9807C19.8653 26.9132 19.8577 26.8451 19.8372 26.7805C19.7957 26.65 19.7042 26.5414 19.5826 26.4784C19.461 26.4154 19.3194 26.4033 19.1889 26.4447Z" fill="#879097"/>
<path d="M21.6629 26.4889C25.3018 24.441 27.5623 20.5774 27.5623 16.4061C27.5623 10.0306 22.3755 4.84378 16 4.84378C9.62453 4.84378 4.43774 10.0306 4.43774 16.4061C4.43774 20.5774 6.69824 24.441 10.3372 26.4889C10.3963 26.5222 10.4613 26.5435 10.5286 26.5516C10.5959 26.5597 10.6641 26.5545 10.7294 26.5362C10.7947 26.518 10.8557 26.487 10.909 26.4452C10.9624 26.4033 11.0069 26.3514 11.0402 26.2923C11.0734 26.2332 11.0947 26.1682 11.1028 26.1009C11.1109 26.0336 11.1057 25.9653 11.0874 25.9C11.0692 25.8348 11.0382 25.7737 10.9963 25.7204C10.9545 25.6671 10.9025 25.6225 10.8435 25.5893C7.52907 23.724 5.47009 20.2052 5.47009 16.4061C5.47009 10.5999 10.1938 5.87613 16 5.87613C21.8062 5.87613 26.53 10.5999 26.53 16.4061C26.53 20.2051 24.471 23.7239 21.1566 25.5892C21.0975 25.6224 21.0456 25.667 21.0037 25.7203C20.9619 25.7736 20.9309 25.8347 20.9127 25.9C20.8944 25.9652 20.8892 26.0335 20.8973 26.1008C20.9054 26.1681 20.9267 26.2331 20.9599 26.2922C20.9932 26.3513 21.0377 26.4032 21.0911 26.4451C21.1444 26.4869 21.2054 26.5179 21.2707 26.5361C21.336 26.5544 21.4042 26.5596 21.4715 26.5515C21.5388 26.5434 21.6039 26.5221 21.6629 26.4889Z" fill="#879097"/>
</g>
<defs>
<clipPath id="clip0_70_434">
<rect width="32" height="32" fill="white"/>
</clipPath>
</defs>
</svg>
