<svg width="32" height="32" viewBox="0 0 32 32" fill="none" xmlns="http://www.w3.org/2000/svg">
<g clip-path="url(#clip0_70_435)">
<path d="M31.8066 15.6202C26.6315 11.8564 20.1436 5.36854 16.3798 0.193435C16.3363 0.133512 16.2792 0.0847464 16.2131 0.0511221C16.1471 0.0174978 16.0741 -3.05176e-05 16 -3.05176e-05C15.9259 -3.05176e-05 15.8529 0.0174978 15.7869 0.0511221C15.7209 0.0847464 15.6638 0.133512 15.6202 0.193435C11.8565 5.36854 5.36857 11.8564 0.193465 15.6202C0.133543 15.6637 0.0847769 15.7209 0.0511526 15.7869C0.0175284 15.8529 0 15.9259 0 16C0 16.0741 0.0175284 16.1471 0.0511526 16.2131C0.0847769 16.2791 0.133543 16.3362 0.193465 16.3798C5.36857 20.1435 11.8565 26.6314 15.6202 31.8066C15.6638 31.8665 15.7209 31.9152 15.7869 31.9489C15.8529 31.9825 15.9259 32 16 32C16.0741 32 16.1471 31.9825 16.2131 31.9489C16.2792 31.9152 16.3363 31.8665 16.3798 31.8066C20.1436 26.6314 26.6315 20.1435 31.8066 16.3798C31.8665 16.3362 31.9153 16.2791 31.9489 16.2131C31.9825 16.1471 32 16.0741 32 16C32 15.9259 31.9825 15.8529 31.9489 15.7869C31.9153 15.7209 31.8665 15.6637 31.8066 15.6202ZM25.819 11.8892C25.383 12.2645 24.926 12.6146 24.45 12.9378C24.0024 11.6994 23.2876 10.5747 22.3565 9.64349C21.4253 8.71233 20.3006 7.99756 19.0621 7.54993C19.3853 7.074 19.7354 6.61695 20.1108 6.181C21.9004 8.14102 23.859 10.0997 25.819 11.8892ZM18.0296 22.6812C20.2503 22.0052 22.0053 20.2503 22.6812 18.0296C23.0054 18.1901 23.3236 18.3623 23.6354 18.5457C23.2412 19.7314 22.576 20.8089 21.6925 21.6924C20.8089 22.5759 19.7315 23.2412 18.5458 23.6353C18.3623 23.3236 18.1901 23.0053 18.0296 22.6812ZM13.4539 23.6353C12.2683 23.2411 11.191 22.5758 10.3075 21.6923C9.42407 20.8088 8.75883 19.7314 8.36467 18.5458C8.67642 18.3623 8.99468 18.1902 9.31885 18.0296C9.9948 20.2504 11.7497 22.0053 13.9704 22.6812C13.8098 23.0054 13.6375 23.3236 13.4539 23.6353ZM13.9704 9.31882C11.7497 9.99477 9.9948 11.7497 9.31885 13.9704C8.99469 13.8099 8.67642 13.6377 8.36467 13.4543C8.75882 12.2686 9.42409 11.1911 10.3076 10.3076C11.1912 9.4241 12.2686 8.75883 13.4543 8.36471C13.6378 8.67642 13.8099 8.99467 13.9704 9.31882ZM9.95697 16C9.95697 12.6679 12.6679 9.95694 16 9.95694C19.3322 9.95694 22.0431 12.6679 22.0431 16C22.0431 19.3321 19.3322 22.043 16 22.043C12.6679 22.043 9.95697 19.3321 9.95697 16ZM18.0296 9.31882C18.1901 8.99466 18.3623 8.67639 18.5457 8.36464C19.7314 8.75883 20.8089 9.42411 21.6924 10.3076C22.5759 11.1912 23.2412 12.2686 23.6354 13.4543C23.3236 13.6377 23.0054 13.8099 22.6812 13.9704C22.0053 11.7496 20.2504 9.9947 18.0296 9.31882ZM16 1.26046C17.0119 2.61153 18.1937 4.03988 19.4771 5.47838C18.5203 6.57246 17.7173 7.79186 17.09 9.1029C16.3678 8.98916 15.6322 8.98916 14.91 9.1029C14.2828 7.79185 13.4797 6.57244 12.523 5.47838C13.8063 4.03982 14.9882 2.61153 16 1.26046ZM11.8892 6.18107C12.2645 6.61701 12.6147 7.07407 12.9379 7.54999C11.6994 7.99757 10.5746 8.71231 9.64348 9.64347C8.71231 10.5746 7.99755 11.6994 7.54996 12.9378C7.07404 12.6146 6.61699 12.2645 6.18103 11.8892C8.14105 10.0997 10.0997 8.14102 11.8892 6.18107ZM5.47841 12.523C6.57247 13.4797 7.79187 14.2828 9.10293 14.9101C9.04612 15.2706 9.0176 15.635 9.01764 16C9.01764 16.3707 9.04694 16.7347 9.10293 17.09C7.79189 17.7173 6.57249 18.5204 5.47841 19.4771C4.03992 18.1938 2.61156 17.0119 1.26049 16.0001C2.61156 14.9881 4.03985 13.8063 5.47841 12.523ZM6.1811 20.1108C6.61704 19.7355 7.0741 19.3853 7.55002 19.0622C7.99764 20.3006 8.7124 21.4253 9.64355 22.3565C10.5747 23.2876 11.6994 24.0024 12.9379 24.45C12.6146 24.9259 12.2645 25.3829 11.8892 25.8189C10.0997 23.859 8.14105 21.9003 6.1811 20.1108ZM16 30.7395C14.9882 29.3885 13.8064 27.9604 12.5232 26.5219C13.4798 25.4277 14.2828 24.2082 14.9101 22.8971C15.2706 22.9539 15.635 22.9824 16 22.9824C16.3707 22.9824 16.7348 22.9531 17.09 22.8971C17.7173 24.2081 18.5204 25.4275 19.4771 26.5216C18.1937 27.9601 17.0119 29.3885 16 30.7395ZM20.1109 25.8189C19.7355 25.383 19.3854 24.9259 19.0622 24.45C20.3007 24.0024 21.4254 23.2877 22.3566 22.3565C23.2877 21.4253 24.0025 20.3006 24.4501 19.0621C24.926 19.3853 25.3831 19.7354 25.819 20.1108C23.859 21.9003 21.9004 23.859 20.1109 25.8189ZM26.5216 19.477C25.4276 18.5203 24.2082 17.7172 22.8971 17.0899C23.0109 16.3677 23.0109 15.6322 22.8971 14.91C24.2082 14.2827 25.4276 13.4796 26.5216 12.5229C27.9601 13.8062 29.3885 14.9881 30.7396 15.9999C29.3885 17.0118 27.9601 18.1937 26.5216 19.477Z" fill="#879097"/>
<path d="M16 4.69666C16.1897 4.69666 16.3751 4.61964 16.5091 4.48562C16.6431 4.35161 16.7201 4.16625 16.7201 3.9765C16.7201 3.78676 16.6431 3.6014 16.5091 3.46738C16.3751 3.33337 16.1897 3.25635 16 3.25635C15.8102 3.25635 15.6249 3.33337 15.4909 3.46738C15.3569 3.6014 15.2798 3.78676 15.2798 3.9765C15.2798 4.16625 15.3569 4.35161 15.4909 4.48562C15.6249 4.61964 15.8102 4.69666 16 4.69666ZM17.5029 6.1996C17.6927 6.1996 17.878 6.12257 18.012 5.98856C18.1461 5.85455 18.2231 5.66919 18.2231 5.47944C18.2231 5.28969 18.1461 5.10433 18.012 4.97032C17.878 4.83631 17.6927 4.75928 17.5029 4.75928C17.3132 4.75928 17.1278 4.83631 16.9938 4.97032C16.8598 5.10433 16.7828 5.28969 16.7828 5.47944C16.7828 5.66919 16.8598 5.85455 16.9938 5.98856C17.1278 6.12257 17.3132 6.1996 17.5029 6.1996ZM13.9879 5.98856C14.1219 6.12257 14.3073 6.1996 14.4971 6.1996C14.6868 6.1996 14.8722 6.12257 15.0062 5.98856C15.1402 5.85455 15.2172 5.66919 15.2172 5.47944C15.2172 5.28969 15.1402 5.10433 15.0062 4.97032C14.8722 4.83631 14.6868 4.75928 14.4971 4.75928C14.3073 4.75928 14.1219 4.83631 13.9879 4.97032C13.8539 5.10433 13.7769 5.28969 13.7769 5.47944C13.7769 5.66919 13.8539 5.85455 13.9879 5.98856ZM16 27.3033C15.8102 27.3033 15.6249 27.3803 15.4909 27.5144C15.3569 27.6484 15.2798 27.8337 15.2798 28.0235C15.2798 28.2132 15.3569 28.3986 15.4909 28.5326C15.6249 28.6666 15.8102 28.7436 16 28.7436C16.1897 28.7436 16.3751 28.6666 16.5091 28.5326C16.6431 28.3986 16.7201 28.2132 16.7201 28.0235C16.7201 27.8337 16.6431 27.6484 16.5091 27.5144C16.3751 27.3803 16.1897 27.3033 16 27.3033ZM14.4971 25.8004C14.3073 25.8004 14.1219 25.8774 13.9879 26.0114C13.8539 26.1454 13.7769 26.3308 13.7769 26.5205C13.7769 26.7103 13.8539 26.8956 13.9879 27.0297C14.1219 27.1637 14.3073 27.2407 14.4971 27.2407C14.6868 27.2407 14.8722 27.1637 15.0062 27.0297C15.1402 26.8956 15.2172 26.7103 15.2172 26.5205C15.2172 26.3308 15.1402 26.1454 15.0062 26.0114C14.8722 25.8774 14.6868 25.8004 14.4971 25.8004ZM18.012 26.0114C17.878 25.8774 17.6927 25.8004 17.5029 25.8004C17.3132 25.8004 17.1278 25.8774 16.9938 26.0114C16.8598 26.1454 16.7828 26.3308 16.7828 26.5205C16.7828 26.7103 16.8598 26.8956 16.9938 27.0297C17.1278 27.1637 17.3132 27.2407 17.5029 27.2407C17.6927 27.2407 17.878 27.1637 18.012 27.0297C18.1461 26.8956 18.2231 26.7103 18.2231 26.5205C18.2231 26.3308 18.1461 26.1454 18.012 26.0114ZM28.0235 16.7201C28.2132 16.7201 28.3986 16.6431 28.5326 16.5091C28.6666 16.3751 28.7436 16.1897 28.7436 16C28.7436 15.8102 28.6666 15.6249 28.5326 15.4909C28.3986 15.3569 28.2132 15.2798 28.0235 15.2798C27.8337 15.2798 27.6484 15.3569 27.5144 15.4909C27.3803 15.6249 27.3033 15.8102 27.3033 16C27.3033 16.1897 27.3803 16.3751 27.5144 16.5091C27.6484 16.6431 27.8337 16.7201 28.0235 16.7201ZM26.5205 16.7828C26.3308 16.7828 26.1454 16.8598 26.0114 16.9938C25.8774 17.1278 25.8004 17.3132 25.8004 17.5029C25.8004 17.6927 25.8774 17.878 26.0114 18.012C26.1454 18.1461 26.3308 18.2231 26.5205 18.2231C26.7103 18.2231 26.8956 18.1461 27.0297 18.012C27.1637 17.878 27.2407 17.6927 27.2407 17.5029C27.2407 17.3132 27.1637 17.1278 27.0297 16.9938C26.8956 16.8598 26.7103 16.7828 26.5205 16.7828ZM26.5205 13.7769C26.3308 13.7769 26.1454 13.8539 26.0114 13.9879C25.8774 14.1219 25.8004 14.3073 25.8004 14.4971C25.8004 14.6868 25.8774 14.8722 26.0114 15.0062C26.1454 15.1402 26.3308 15.2172 26.5205 15.2172C26.7103 15.2172 26.8956 15.1402 27.0297 15.0062C27.1637 14.8722 27.2407 14.6868 27.2407 14.4971C27.2407 14.3073 27.1637 14.1219 27.0297 13.9879C26.8956 13.8539 26.7103 13.7769 26.5205 13.7769ZM3.9765 15.2798C3.78676 15.2798 3.6014 15.3569 3.46738 15.4909C3.33337 15.6249 3.25635 15.8102 3.25635 16C3.25635 16.1897 3.33337 16.3751 3.46738 16.5091C3.6014 16.6431 3.78676 16.7201 3.9765 16.7201C4.16625 16.7201 4.35161 16.6431 4.48562 16.5091C4.61964 16.3751 4.69666 16.1897 4.69666 16C4.69666 15.8102 4.61964 15.6249 4.48562 15.4909C4.35161 15.3569 4.16625 15.2798 3.9765 15.2798ZM5.47944 15.2172C5.66919 15.2172 5.85455 15.1402 5.98856 15.0062C6.12257 14.8722 6.1996 14.6868 6.1996 14.4971C6.1996 14.3073 6.12257 14.1219 5.98856 13.9879C5.85455 13.8539 5.66919 13.7769 5.47944 13.7769C5.28969 13.7769 5.10433 13.8539 4.97032 13.9879C4.83631 14.1219 4.75928 14.3073 4.75928 14.4971C4.75928 14.6868 4.83631 14.8722 4.97032 15.0062C5.10433 15.1402 5.28969 15.2172 5.47944 15.2172ZM5.47944 18.2231C5.66919 18.2231 5.85455 18.1461 5.98856 18.012C6.12257 17.878 6.1996 17.6927 6.1996 17.5029C6.1996 17.3132 6.12257 17.1278 5.98856 16.9938C5.85455 16.8598 5.66919 16.7828 5.47944 16.7828C5.28969 16.7828 5.10433 16.8598 4.97032 16.9938C4.83631 17.1278 4.75928 17.3132 4.75928 17.5029C4.75928 17.6927 4.83631 17.878 4.97032 18.012C5.10433 18.1461 5.28969 18.2231 5.47944 18.2231ZM20.4775 16C20.4775 13.5311 18.4689 11.5225 16 11.5225C13.5311 11.5225 11.5225 13.5311 11.5225 16C11.5225 18.4689 13.5311 20.4775 16 20.4775C18.4689 20.4775 20.4775 18.4689 20.4775 16ZM12.4618 16C12.4618 14.0491 14.0491 12.4618 16 12.4618C17.9509 12.4618 19.5381 14.0491 19.5381 16C19.5381 17.9509 17.9509 19.5381 16 19.5381C14.0491 19.5381 12.4618 17.9509 12.4618 16Z" fill="#879097"/>
<path d="M17.9727 16C17.9727 14.9123 17.0878 14.0274 16.0001 14.0274C14.9124 14.0274 14.0275 14.9123 14.0275 16C14.0275 17.0877 14.9124 17.9726 16.0001 17.9726C17.0878 17.9726 17.9727 17.0877 17.9727 16ZM14.9668 16C14.9668 15.4303 15.4303 14.9667 16.0001 14.9667C16.5698 14.9667 17.0333 15.4303 17.0333 16C17.0333 16.5697 16.5698 17.0333 16.0001 17.0333C15.4303 17.0333 14.9668 16.5697 14.9668 16Z" fill="#879097"/>
</g>
<defs>
<clipPath id="clip0_70_435">
<rect width="32" height="32" fill="white"/>
</clipPath>
</defs>
</svg>
