<svg width="32" height="32" viewBox="0 0 32 32" fill="none" xmlns="http://www.w3.org/2000/svg">
<g clip-path="url(#clip0_152_386)">
<path d="M24.7883 0L21.3297 3.45864L19.2908 5.50026L17.5766 7.21169L20.0722 9.70456L21.5168 8.26277L20.4657 7.21169L21.4617 6.21565L23.3438 4.33637L24.7883 2.89183L29.1082 7.21169L27.6636 8.65348L25.7843 10.541L24.7883 11.5343L23.74 10.4832L22.2954 11.9278L24.7883 14.4206L26.4997 12.7092L28.5413 10.6703L32 7.21169L24.7883 0Z" fill="#879097"/>
<path d="M27.8177 23.5006L29.1082 24.791L24.7883 29.1082L23.5006 27.8205C22.8997 28.2049 22.2695 28.5417 21.6158 28.8275L24.7883 32L32 24.791L28.8275 21.6186C28.5407 22.2714 28.2031 22.9006 27.8177 23.5006Z" fill="#879097"/>
<path d="M27.0005 12.9899C27.5571 15.0151 27.5429 17.1549 26.9592 19.1725C26.6969 20.0921 26.3158 20.9736 25.8256 21.7947C25.5652 22.2415 25.2718 22.6682 24.9479 23.0714L24.7553 23.3108L23.7372 22.2927L22.2954 23.7372L23.3107 24.7525L23.0714 24.9451C22.6689 25.2699 22.242 25.5634 21.7947 25.8229C20.9735 26.3129 20.092 26.694 19.1725 26.9565C17.1543 27.5375 15.0151 27.5508 12.9898 26.995L11.3637 28.6239C14.4954 29.77 17.9403 29.7171 21.0352 28.4753C21.8606 28.1442 22.6498 27.7293 23.3905 27.2372C24.9228 26.228 26.2335 24.9173 27.2426 23.385C27.7351 22.6451 28.1509 21.8568 28.4836 21.0325C29.7225 17.9359 29.7745 14.4908 28.6294 11.3582L27.0005 12.9899Z" fill="#879097"/>
<path d="M16.3879 14.173L17.8325 15.6175L21.6983 11.7352L23.5336 9.89992L24.7443 8.68926L24.9369 8.92864C25.1859 9.24086 25.4156 9.56798 25.6247 9.90818L27.0995 8.43062C26.6273 7.7356 26.0911 7.08618 25.4982 6.4908C24.9065 5.89918 24.2618 5.36314 23.5721 4.88943L22.0918 6.36424C22.4314 6.57528 22.7585 6.80588 23.0713 7.05487L23.3107 7.24472L22.1001 8.45814L20.2676 10.2906L16.3879 14.173Z" fill="#879097"/>
<path d="M24.7883 17.5794L22.1001 20.2676L20.2676 22.1001L17.5711 24.7911L19.1642 26.3842C19.8697 26.1711 20.5504 25.8833 21.1948 25.5257L20.4602 24.7911L21.7039 23.5446L23.5391 21.7121L24.7828 20.4657L25.5202 21.2031C25.8758 20.5581 26.1626 19.8775 26.3759 19.1725L24.7883 17.5794Z" fill="#879097"/>
<path d="M11.9278 10.4832L10.4832 11.9278L14.3628 15.8047L16.1953 17.6399L20.0722 21.5168L21.5167 20.0722L17.6399 16.1954L15.8046 14.3629L11.9278 10.4832Z" fill="#879097"/>
<path d="M4.99949 19.0129C4.44286 16.9876 4.45714 14.8479 5.04076 12.8303C5.30283 11.911 5.68296 11.0296 6.17163 10.2081C6.4321 9.76129 6.72549 9.33455 7.04936 8.93138L7.24196 8.69199L8.25727 9.71005L9.70181 8.26551L8.6865 7.24745L8.92314 7.0576C9.32543 6.73253 9.75226 6.43908 10.1998 6.17987C11.0197 5.68923 11.9004 5.30811 12.8193 5.04624C14.8374 4.46632 16.9762 4.45204 19.0019 5.00497L20.6308 3.37883C17.4992 2.2337 14.0549 2.28564 10.9592 3.52466C10.1338 3.85673 9.34459 4.27255 8.60396 4.76559C7.83885 5.26765 7.1271 5.84665 6.4798 6.49354C5.83454 7.1413 5.25568 7.85197 4.75186 8.61495C4.25882 9.35461 3.843 10.1429 3.51092 10.9675C2.26919 14.0625 2.21627 17.5074 3.36234 20.639L4.99949 19.0129Z" fill="#879097"/>
<path d="M15.6093 17.8353L14.1675 16.3907L10.2879 20.2676L8.45536 22.1001L7.2447 23.3135L7.05209 23.0741C6.80374 22.7608 6.57318 22.4338 6.36147 22.0946L4.88666 23.5721C5.83123 24.9646 7.03318 26.1638 8.42784 27.1051L9.90815 25.6303C9.56765 25.4192 9.23967 25.1886 8.92586 24.9396L8.68924 24.747L9.8999 23.5364L11.7324 21.7039L15.6093 17.8353Z" fill="#879097"/>
<path d="M7.21172 14.4234L9.89994 11.7352L11.7324 9.8999L14.4207 7.21168L12.8275 5.61856C12.1221 5.83167 11.4413 6.11946 10.7969 6.47703L11.5343 7.21168L10.2879 8.45812L8.4554 10.2906L7.21172 11.5343L6.47432 10.7996C6.1179 11.4446 5.83016 12.1252 5.61584 12.8303L7.21172 14.4234Z" fill="#879097"/>
<path d="M14.4206 24.7883L11.9278 22.2954L10.4832 23.74L11.5343 24.7883L10.5383 25.7843L8.65623 27.6636L7.21169 29.1082L2.89183 24.7883L4.33637 23.3465L6.21565 21.4617L7.21169 20.4657L8.26002 21.5168L9.70456 20.0722L7.21169 17.5766L5.50026 19.2908L3.45864 21.3297L0 24.7883L7.21169 32L10.6703 28.5413L12.7092 26.4997L14.4206 24.7883Z" fill="#879097"/>
<path d="M4.17953 8.50216L2.89183 7.2117L7.21169 2.89183L8.49939 4.18229C9.09934 3.79694 9.72861 3.4593 10.3814 3.17248L7.21169 0L0 7.2117L3.17248 10.3842C3.45777 9.73115 3.7945 9.10182 4.17953 8.50216Z" fill="#879097"/>
</g>
<defs>
<clipPath id="clip0_152_386">
<rect width="32" height="32" fill="white"/>
</clipPath>
</defs>
</svg>
